<svg width="42" height="34" viewBox="0 0 42 34" fill="none" xmlns="http://www.w3.org/2000/svg">
<path d="M13.7978 16.032C15.3978 16.736 16.6458 17.792 17.5418 19.2C18.4378 20.608 18.8858 22.272 18.8858 24.192C18.8858 26.944 18.0218 29.184 16.2938 30.912C14.5658 32.576 12.3578 33.408 9.66975 33.408C6.98175 33.408 4.74175 32.544 2.94975 30.816C1.22175 29.088 0.35775 26.88 0.35775 24.192C0.35775 22.912 0.51775 21.632 0.83775 20.352C1.15775 19.072 1.86175 17.152 2.94975 14.592L8.51775 0.767996H18.0218L13.7978 16.032ZM36.4538 16.032C38.0538 16.736 39.3018 17.792 40.1978 19.2C41.0938 20.608 41.5418 22.272 41.5418 24.192C41.5418 26.944 40.6778 29.184 38.9498 30.912C37.2218 32.576 35.0138 33.408 32.3258 33.408C29.6378 33.408 27.3978 32.544 25.6058 30.816C23.8778 29.088 23.0138 26.88 23.0138 24.192C23.0138 22.912 23.1738 21.632 23.4938 20.352C23.8138 19.072 24.5178 17.152 25.6058 14.592L31.1738 0.767996H40.6778L36.4538 16.032Z" fill="#AC9675"/>
</svg>
