<svg width="255" height="75" viewBox="0 0 255 75" fill="none" xmlns="http://www.w3.org/2000/svg">
<path d="M0 73.5L1.03647 73.1632V72.0734L1.67705 72.9551L2.71353 72.6183L2.07295 73.5L2.71353 74.3817L1.67705 74.0449L1.03647 74.9266V73.8368L0 73.5Z" fill="#C4C4C4"/>
<path d="M18 73.5L19.0365 73.1632V72.0734L19.6771 72.9551L20.7135 72.6183L20.0729 73.5L20.7135 74.3817L19.6771 74.0449L19.0365 74.9266V73.8368L18 73.5Z" fill="#C4C4C4"/>
<path d="M36 73.5L37.0365 73.1632V72.0734L37.6771 72.9551L38.7135 72.6183L38.0729 73.5L38.7135 74.3817L37.6771 74.0449L37.0365 74.9266V73.8368L36 73.5Z" fill="#C4C4C4"/>
<path d="M54 73.5L55.0365 73.1632V72.0734L55.6771 72.9551L56.7135 72.6183L56.0729 73.5L56.7135 74.3817L55.6771 74.0449L55.0365 74.9266V73.8368L54 73.5Z" fill="#C4C4C4"/>
<path d="M72 73.5L73.0365 73.1632V72.0734L73.6771 72.9551L74.7135 72.6183L74.0729 73.5L74.7135 74.3817L73.6771 74.0449L73.0365 74.9266V73.8368L72 73.5Z" fill="#C4C4C4"/>
<path d="M90 73.5L91.0365 73.1632V72.0734L91.6771 72.9551L92.7135 72.6183L92.0729 73.5L92.7135 74.3817L91.6771 74.0449L91.0365 74.9266V73.8368L90 73.5Z" fill="#C4C4C4"/>
<path d="M108 73.5L109.036 73.1632V72.0734L109.677 72.9551L110.714 72.6183L110.073 73.5L110.714 74.3817L109.677 74.0449L109.036 74.9266V73.8368L108 73.5Z" fill="#C4C4C4"/>
<path d="M126 73.5L127.036 73.1632V72.0734L127.677 72.9551L128.714 72.6183L128.073 73.5L128.714 74.3817L127.677 74.0449L127.036 74.9266V73.8368L126 73.5Z" fill="#C4C4C4"/>
<path d="M144 73.5L145.036 73.1632V72.0734L145.677 72.9551L146.714 72.6183L146.073 73.5L146.714 74.3817L145.677 74.0449L145.036 74.9266V73.8368L144 73.5Z" fill="#C4C4C4"/>
<path d="M162 73.5L163.036 73.1632V72.0734L163.677 72.9551L164.714 72.6183L164.073 73.5L164.714 74.3817L163.677 74.0449L163.036 74.9266V73.8368L162 73.5Z" fill="#C4C4C4"/>
<path d="M180 73.5L181.036 73.1632V72.0734L181.677 72.9551L182.714 72.6183L182.073 73.5L182.714 74.3817L181.677 74.0449L181.036 74.9266V73.8368L180 73.5Z" fill="#C4C4C4"/>
<path d="M198 73.5L199.036 73.1632V72.0734L199.677 72.9551L200.714 72.6183L200.073 73.5L200.714 74.3817L199.677 74.0449L199.036 74.9266V73.8368L198 73.5Z" fill="#C4C4C4"/>
<path d="M216 73.5L217.036 73.1632V72.0734L217.677 72.9551L218.714 72.6183L218.073 73.5L218.714 74.3817L217.677 74.0449L217.036 74.9266V73.8368L216 73.5Z" fill="#C4C4C4"/>
<path d="M234 73.5L235.036 73.1632V72.0734L235.677 72.9551L236.714 72.6183L236.073 73.5L236.714 74.3817L235.677 74.0449L235.036 74.9266V73.8368L234 73.5Z" fill="#C4C4C4"/>
<path d="M252 73.5L253.036 73.1632V72.0734L253.677 72.9551L254.714 72.6183L254.073 73.5L254.714 74.3817L253.677 74.0449L253.036 74.9266V73.8368L252 73.5Z" fill="#C4C4C4"/>
<path d="M0 55.5L1.03647 55.1632V54.0734L1.67705 54.9551L2.71353 54.6183L2.07295 55.5L2.71353 56.3817L1.67705 56.0449L1.03647 56.9266V55.8368L0 55.5Z" fill="#C4C4C4"/>
<path d="M18 55.5L19.0365 55.1632V54.0734L19.6771 54.9551L20.7135 54.6183L20.0729 55.5L20.7135 56.3817L19.6771 56.0449L19.0365 56.9266V55.8368L18 55.5Z" fill="#C4C4C4"/>
<path d="M36 55.5L37.0365 55.1632V54.0734L37.6771 54.9551L38.7135 54.6183L38.0729 55.5L38.7135 56.3817L37.6771 56.0449L37.0365 56.9266V55.8368L36 55.5Z" fill="#C4C4C4"/>
<path d="M54 55.5L55.0365 55.1632V54.0734L55.6771 54.9551L56.7135 54.6183L56.0729 55.5L56.7135 56.3817L55.6771 56.0449L55.0365 56.9266V55.8368L54 55.5Z" fill="#C4C4C4"/>
<path d="M72 55.5L73.0365 55.1632V54.0734L73.6771 54.9551L74.7135 54.6183L74.0729 55.5L74.7135 56.3817L73.6771 56.0449L73.0365 56.9266V55.8368L72 55.5Z" fill="#C4C4C4"/>
<path d="M90 55.5L91.0365 55.1632V54.0734L91.6771 54.9551L92.7135 54.6183L92.0729 55.5L92.7135 56.3817L91.6771 56.0449L91.0365 56.9266V55.8368L90 55.5Z" fill="#C4C4C4"/>
<path d="M108 55.5L109.036 55.1632V54.0734L109.677 54.9551L110.714 54.6183L110.073 55.5L110.714 56.3817L109.677 56.0449L109.036 56.9266V55.8368L108 55.5Z" fill="#C4C4C4"/>
<path d="M126 55.5L127.036 55.1632V54.0734L127.677 54.9551L128.714 54.6183L128.073 55.5L128.714 56.3817L127.677 56.0449L127.036 56.9266V55.8368L126 55.5Z" fill="#C4C4C4"/>
<path d="M144 55.5L145.036 55.1632V54.0734L145.677 54.9551L146.714 54.6183L146.073 55.5L146.714 56.3817L145.677 56.0449L145.036 56.9266V55.8368L144 55.5Z" fill="#C4C4C4"/>
<path d="M162 55.5L163.036 55.1632V54.0734L163.677 54.9551L164.714 54.6183L164.073 55.5L164.714 56.3817L163.677 56.0449L163.036 56.9266V55.8368L162 55.5Z" fill="#C4C4C4"/>
<path d="M180 55.5L181.036 55.1632V54.0734L181.677 54.9551L182.714 54.6183L182.073 55.5L182.714 56.3817L181.677 56.0449L181.036 56.9266V55.8368L180 55.5Z" fill="#C4C4C4"/>
<path d="M198 55.5L199.036 55.1632V54.0734L199.677 54.9551L200.714 54.6183L200.073 55.5L200.714 56.3817L199.677 56.0449L199.036 56.9266V55.8368L198 55.5Z" fill="#C4C4C4"/>
<path d="M216 55.5L217.036 55.1632V54.0734L217.677 54.9551L218.714 54.6183L218.073 55.5L218.714 56.3817L217.677 56.0449L217.036 56.9266V55.8368L216 55.5Z" fill="#C4C4C4"/>
<path d="M234 55.5L235.036 55.1632V54.0734L235.677 54.9551L236.714 54.6183L236.073 55.5L236.714 56.3817L235.677 56.0449L235.036 56.9266V55.8368L234 55.5Z" fill="#C4C4C4"/>
<path d="M252 55.5L253.036 55.1632V54.0734L253.677 54.9551L254.714 54.6183L254.073 55.5L254.714 56.3817L253.677 56.0449L253.036 56.9266V55.8368L252 55.5Z" fill="#C4C4C4"/>
<path d="M0 37.5L1.03647 37.1632V36.0734L1.67705 36.9551L2.71353 36.6183L2.07295 37.5L2.71353 38.3817L1.67705 38.0449L1.03647 38.9266V37.8368L0 37.5Z" fill="#C4C4C4"/>
<path d="M18 37.5L19.0365 37.1632V36.0734L19.6771 36.9551L20.7135 36.6183L20.0729 37.5L20.7135 38.3817L19.6771 38.0449L19.0365 38.9266V37.8368L18 37.5Z" fill="#C4C4C4"/>
<path d="M36 37.5L37.0365 37.1632V36.0734L37.6771 36.9551L38.7135 36.6183L38.0729 37.5L38.7135 38.3817L37.6771 38.0449L37.0365 38.9266V37.8368L36 37.5Z" fill="#C4C4C4"/>
<path d="M54 37.5L55.0365 37.1632V36.0734L55.6771 36.9551L56.7135 36.6183L56.0729 37.5L56.7135 38.3817L55.6771 38.0449L55.0365 38.9266V37.8368L54 37.5Z" fill="#C4C4C4"/>
<path d="M72 37.5L73.0365 37.1632V36.0734L73.6771 36.9551L74.7135 36.6183L74.0729 37.5L74.7135 38.3817L73.6771 38.0449L73.0365 38.9266V37.8368L72 37.5Z" fill="#C4C4C4"/>
<path d="M90 37.5L91.0365 37.1632V36.0734L91.6771 36.9551L92.7135 36.6183L92.0729 37.5L92.7135 38.3817L91.6771 38.0449L91.0365 38.9266V37.8368L90 37.5Z" fill="#C4C4C4"/>
<path d="M108 37.5L109.036 37.1632V36.0734L109.677 36.9551L110.714 36.6183L110.073 37.5L110.714 38.3817L109.677 38.0449L109.036 38.9266V37.8368L108 37.5Z" fill="#C4C4C4"/>
<path d="M126 37.5L127.036 37.1632V36.0734L127.677 36.9551L128.714 36.6183L128.073 37.5L128.714 38.3817L127.677 38.0449L127.036 38.9266V37.8368L126 37.5Z" fill="#C4C4C4"/>
<path d="M144 37.5L145.036 37.1632V36.0734L145.677 36.9551L146.714 36.6183L146.073 37.5L146.714 38.3817L145.677 38.0449L145.036 38.9266V37.8368L144 37.5Z" fill="#C4C4C4"/>
<path d="M162 37.5L163.036 37.1632V36.0734L163.677 36.9551L164.714 36.6183L164.073 37.5L164.714 38.3817L163.677 38.0449L163.036 38.9266V37.8368L162 37.5Z" fill="#C4C4C4"/>
<path d="M180 37.5L181.036 37.1632V36.0734L181.677 36.9551L182.714 36.6183L182.073 37.5L182.714 38.3817L181.677 38.0449L181.036 38.9266V37.8368L180 37.5Z" fill="#C4C4C4"/>
<path d="M198 37.5L199.036 37.1632V36.0734L199.677 36.9551L200.714 36.6183L200.073 37.5L200.714 38.3817L199.677 38.0449L199.036 38.9266V37.8368L198 37.5Z" fill="#C4C4C4"/>
<path d="M216 37.5L217.036 37.1632V36.0734L217.677 36.9551L218.714 36.6183L218.073 37.5L218.714 38.3817L217.677 38.0449L217.036 38.9266V37.8368L216 37.5Z" fill="#C4C4C4"/>
<path d="M234 37.5L235.036 37.1632V36.0734L235.677 36.9551L236.714 36.6183L236.073 37.5L236.714 38.3817L235.677 38.0449L235.036 38.9266V37.8368L234 37.5Z" fill="#C4C4C4"/>
<path d="M252 37.5L253.036 37.1632V36.0734L253.677 36.9551L254.714 36.6183L254.073 37.5L254.714 38.3817L253.677 38.0449L253.036 38.9266V37.8368L252 37.5Z" fill="#C4C4C4"/>
<path d="M0 19.5L1.03647 19.1632V18.0734L1.67705 18.9551L2.71353 18.6183L2.07295 19.5L2.71353 20.3817L1.67705 20.0449L1.03647 20.9266V19.8368L0 19.5Z" fill="#C4C4C4"/>
<path d="M18 19.5L19.0365 19.1632V18.0734L19.6771 18.9551L20.7135 18.6183L20.0729 19.5L20.7135 20.3817L19.6771 20.0449L19.0365 20.9266V19.8368L18 19.5Z" fill="#C4C4C4"/>
<path d="M36 19.5L37.0365 19.1632V18.0734L37.6771 18.9551L38.7135 18.6183L38.0729 19.5L38.7135 20.3817L37.6771 20.0449L37.0365 20.9266V19.8368L36 19.5Z" fill="#C4C4C4"/>
<path d="M54 19.5L55.0365 19.1632V18.0734L55.6771 18.9551L56.7135 18.6183L56.0729 19.5L56.7135 20.3817L55.6771 20.0449L55.0365 20.9266V19.8368L54 19.5Z" fill="#C4C4C4"/>
<path d="M72 19.5L73.0365 19.1632V18.0734L73.6771 18.9551L74.7135 18.6183L74.0729 19.5L74.7135 20.3817L73.6771 20.0449L73.0365 20.9266V19.8368L72 19.5Z" fill="#C4C4C4"/>
<path d="M90 19.5L91.0365 19.1632V18.0734L91.6771 18.9551L92.7135 18.6183L92.0729 19.5L92.7135 20.3817L91.6771 20.0449L91.0365 20.9266V19.8368L90 19.5Z" fill="#C4C4C4"/>
<path d="M108 19.5L109.036 19.1632V18.0734L109.677 18.9551L110.714 18.6183L110.073 19.5L110.714 20.3817L109.677 20.0449L109.036 20.9266V19.8368L108 19.5Z" fill="#C4C4C4"/>
<path d="M126 19.5L127.036 19.1632V18.0734L127.677 18.9551L128.714 18.6183L128.073 19.5L128.714 20.3817L127.677 20.0449L127.036 20.9266V19.8368L126 19.5Z" fill="#C4C4C4"/>
<path d="M144 19.5L145.036 19.1632V18.0734L145.677 18.9551L146.714 18.6183L146.073 19.5L146.714 20.3817L145.677 20.0449L145.036 20.9266V19.8368L144 19.5Z" fill="#C4C4C4"/>
<path d="M162 19.5L163.036 19.1632V18.0734L163.677 18.9551L164.714 18.6183L164.073 19.5L164.714 20.3817L163.677 20.0449L163.036 20.9266V19.8368L162 19.5Z" fill="#C4C4C4"/>
<path d="M180 19.5L181.036 19.1632V18.0734L181.677 18.9551L182.714 18.6183L182.073 19.5L182.714 20.3817L181.677 20.0449L181.036 20.9266V19.8368L180 19.5Z" fill="#C4C4C4"/>
<path d="M198 19.5L199.036 19.1632V18.0734L199.677 18.9551L200.714 18.6183L200.073 19.5L200.714 20.3817L199.677 20.0449L199.036 20.9266V19.8368L198 19.5Z" fill="#C4C4C4"/>
<path d="M216 19.5L217.036 19.1632V18.0734L217.677 18.9551L218.714 18.6183L218.073 19.5L218.714 20.3817L217.677 20.0449L217.036 20.9266V19.8368L216 19.5Z" fill="#C4C4C4"/>
<path d="M234 19.5L235.036 19.1632V18.0734L235.677 18.9551L236.714 18.6183L236.073 19.5L236.714 20.3817L235.677 20.0449L235.036 20.9266V19.8368L234 19.5Z" fill="#C4C4C4"/>
<path d="M252 19.5L253.036 19.1632V18.0734L253.677 18.9551L254.714 18.6183L254.073 19.5L254.714 20.3817L253.677 20.0449L253.036 20.9266V19.8368L252 19.5Z" fill="#C4C4C4"/>
<path d="M0 1.5L1.03647 1.16323V0.0734153L1.67705 0.955093L2.71353 0.618322L2.07295 1.5L2.71353 2.38168L1.67705 2.04491L1.03647 2.92658V1.83677L0 1.5Z" fill="#C4C4C4"/>
<path d="M18 1.5L19.0365 1.16323V0.0734153L19.6771 0.955093L20.7135 0.618322L20.0729 1.5L20.7135 2.38168L19.6771 2.04491L19.0365 2.92658V1.83677L18 1.5Z" fill="#C4C4C4"/>
<path d="M36 1.5L37.0365 1.16323V0.0734153L37.6771 0.955093L38.7135 0.618322L38.0729 1.5L38.7135 2.38168L37.6771 2.04491L37.0365 2.92658V1.83677L36 1.5Z" fill="#C4C4C4"/>
<path d="M54 1.5L55.0365 1.16323V0.0734153L55.6771 0.955093L56.7135 0.618322L56.0729 1.5L56.7135 2.38168L55.6771 2.04491L55.0365 2.92658V1.83677L54 1.5Z" fill="#C4C4C4"/>
<path d="M72 1.5L73.0365 1.16323V0.0734153L73.6771 0.955093L74.7135 0.618322L74.0729 1.5L74.7135 2.38168L73.6771 2.04491L73.0365 2.92658V1.83677L72 1.5Z" fill="#C4C4C4"/>
<path d="M90 1.5L91.0365 1.16323V0.0734153L91.6771 0.955093L92.7135 0.618322L92.0729 1.5L92.7135 2.38168L91.6771 2.04491L91.0365 2.92658V1.83677L90 1.5Z" fill="#C4C4C4"/>
<path d="M108 1.5L109.036 1.16323V0.0734153L109.677 0.955093L110.714 0.618322L110.073 1.5L110.714 2.38168L109.677 2.04491L109.036 2.92658V1.83677L108 1.5Z" fill="#C4C4C4"/>
<path d="M126 1.5L127.036 1.16323V0.0734153L127.677 0.955093L128.714 0.618322L128.073 1.5L128.714 2.38168L127.677 2.04491L127.036 2.92658V1.83677L126 1.5Z" fill="#C4C4C4"/>
<path d="M144 1.5L145.036 1.16323V0.0734153L145.677 0.955093L146.714 0.618322L146.073 1.5L146.714 2.38168L145.677 2.04491L145.036 2.92658V1.83677L144 1.5Z" fill="#C4C4C4"/>
<path d="M162 1.5L163.036 1.16323V0.0734153L163.677 0.955093L164.714 0.618322L164.073 1.5L164.714 2.38168L163.677 2.04491L163.036 2.92658V1.83677L162 1.5Z" fill="#C4C4C4"/>
<path d="M180 1.5L181.036 1.16323V0.0734153L181.677 0.955093L182.714 0.618322L182.073 1.5L182.714 2.38168L181.677 2.04491L181.036 2.92658V1.83677L180 1.5Z" fill="#C4C4C4"/>
<path d="M198 1.5L199.036 1.16323V0.0734153L199.677 0.955093L200.714 0.618322L200.073 1.5L200.714 2.38168L199.677 2.04491L199.036 2.92658V1.83677L198 1.5Z" fill="#C4C4C4"/>
<path d="M216 1.5L217.036 1.16323V0.0734153L217.677 0.955093L218.714 0.618322L218.073 1.5L218.714 2.38168L217.677 2.04491L217.036 2.92658V1.83677L216 1.5Z" fill="#C4C4C4"/>
<path d="M234 1.5L235.036 1.16323V0.0734153L235.677 0.955093L236.714 0.618322L236.073 1.5L236.714 2.38168L235.677 2.04491L235.036 2.92658V1.83677L234 1.5Z" fill="#C4C4C4"/>
<path d="M252 1.5L253.036 1.16323V0.0734153L253.677 0.955093L254.714 0.618322L254.073 1.5L254.714 2.38168L253.677 2.04491L253.036 2.92658V1.83677L252 1.5Z" fill="#C4C4C4"/>
</svg>
