<svg width="42" height="46" viewBox="0 0 42 46" fill="none" xmlns="http://www.w3.org/2000/svg">
<path d="M0.000192878 16.5007C0.000192878 14.5119 0.412669 12.6331 1.22549 10.8795C2.00208 9.17624 3.15587 7.61301 4.62539 6.27308C6.09191 4.95075 7.77012 3.80731 9.6115 2.87581C11.5008 1.91249 13.5461 1.18573 15.6834 0.718321C17.8465 0.239587 20.0739 -0.00184403 22.3103 1.06041e-05C25.7648 1.06041e-05 28.9797 0.61607 31.9611 1.84308C34.9035 3.04771 37.408 4.89639 39.2128 7.1959C41.075 9.53488 42 12.1806 42 15.1305C42 16.8995 41.7938 18.6301 41.3722 20.3223C40.9582 22.0136 40.3003 23.6559 39.4129 25.2125C38.5671 26.7193 37.4613 28.1122 36.1313 29.3459C34.7946 30.56 33.1759 31.5294 31.3757 32.1936C29.4213 32.9155 27.3071 33.2789 25.1734 33.2596C23.6903 33.2596 22.2102 32.9656 20.7484 32.3751C19.2865 31.7872 18.2371 30.9794 17.6063 29.9441C17.3849 30.6624 17.0816 31.7003 16.6782 33.0576C16.29 34.4124 16.0292 35.2867 15.9139 35.6829C15.7926 36.0766 15.5681 36.7335 15.2406 37.6436C15.0185 38.3167 14.7335 38.974 14.3883 39.6093L13.345 41.3323C12.8938 42.0716 12.3894 42.787 11.8346 43.4744C11.2857 44.1442 10.6063 44.9443 9.79651 45.8645L9.3446 46L9.04435 45.7239C8.71982 42.8277 8.55301 41.0945 8.55301 40.5219C8.55301 38.8271 8.79261 36.9253 9.26575 34.8138C9.72978 32.7049 10.4638 30.054 11.4494 26.8664C12.4351 23.6812 12.9993 21.8075 13.1509 21.2528C12.4564 20.059 12.1046 18.4997 12.1046 16.5825C12.1046 15.0513 12.6717 13.6172 13.8091 12.2675C14.9494 10.9229 16.3901 10.2506 18.137 10.2506C19.4745 10.2506 20.5118 10.6238 21.2549 11.3728C22.001 12.1193 22.3649 13.06 22.3649 14.2077C22.3649 15.4245 21.8857 17.1858 20.9212 19.489C19.9568 21.7947 19.4776 23.5151 19.4776 24.6577C19.4776 25.8157 19.9689 26.7846 20.9516 27.5438C21.9213 28.3034 23.2038 28.715 24.5274 28.6915C25.7284 28.6915 26.8415 28.4615 27.8757 27.9988C28.8938 27.5497 29.775 26.9084 30.4507 26.125C31.9223 24.4233 32.9714 22.4888 33.5351 20.4373C33.8263 19.3586 34.0507 18.3335 34.1902 17.3698C34.3389 16.401 34.4025 15.4859 34.4025 14.6167C34.4025 11.4291 33.2015 8.94438 30.8146 7.16522C28.4156 5.38606 25.2917 4.50159 21.449 4.50159C17.0785 4.50159 13.4239 5.69281 10.4971 8.08292C7.56732 10.4654 6.09332 13.4945 6.09332 17.1679C6.09332 17.9782 6.2389 18.7604 6.51489 19.5171C6.78482 20.2712 7.07902 20.8719 7.39747 21.3167C7.7129 21.7538 8.01012 22.1807 8.28005 22.5744C8.55301 22.9681 8.69556 23.2492 8.69556 23.418C8.69556 23.9343 8.53482 24.6066 8.21029 25.4374C7.87364 26.2682 7.47633 26.6823 6.99713 26.6823C6.95163 26.6823 6.76359 26.6542 6.43604 26.5954C5.30162 26.3099 4.27714 25.7763 3.46681 25.0488C2.60679 24.2949 1.92808 23.4077 1.46812 22.4363C1.00948 21.4684 0.652254 20.4685 0.400538 19.4481C0.128581 18.4825 -0.0058157 17.4931 0.000192878 16.5007Z" fill="white"/>
</svg>
