<svg width="386" height="52" viewBox="0 0 386 52" fill="none" xmlns="http://www.w3.org/2000/svg">
<path d="M35.672 23.856L34.7962 23.3734L34.7924 23.3803L34.7887 23.3873L35.672 23.856ZM29.696 29.544L29.2302 28.6591L29.2238 28.6625L29.696 29.544ZM11.048 31.704V30.704H10.048V31.704H11.048ZM11.048 51V52H12.048V51H11.048ZM0.968 51H-0.0319996V52H0.968V51ZM0.968 0.743999V-0.256001H-0.0319996V0.743999H0.968ZM35.528 8.304L34.6598 8.80013L34.6635 8.80676L34.6674 8.81332L35.528 8.304ZM25.232 21.696L25.9125 22.4288L25.9194 22.4224L25.9261 22.4158L25.232 21.696ZM11.048 8.952V7.952H10.048V8.952H11.048ZM11.048 23.568H10.048V24.568H11.048V23.568ZM36.616 16.296C36.616 18.8154 36.0106 21.1694 34.7962 23.3734L36.5478 24.3386C37.9254 21.8386 38.616 19.1526 38.616 16.296H36.616ZM34.7887 23.3873C33.6493 25.5344 31.8179 27.2972 29.2303 28.6591L30.1617 30.4289C33.0462 28.9108 35.1987 26.8816 36.5553 24.3247L34.7887 23.3873ZM29.2238 28.6625C26.7233 30.0021 23.4909 30.704 19.472 30.704V32.704C23.7091 32.704 27.2927 31.9659 30.1682 30.4255L29.2238 28.6625ZM19.472 30.704H11.048V32.704H19.472V30.704ZM10.048 31.704V51H12.048V31.704H10.048ZM11.048 50H0.968V52H11.048V50ZM1.968 51V0.743999H-0.0319996V51H1.968ZM0.968 1.744H19.472V-0.256001H0.968V1.744ZM19.472 1.744C23.248 1.744 26.4008 2.3969 28.9671 3.65755L29.8489 1.86244C26.9432 0.435102 23.472 -0.256001 19.472 -0.256001V1.744ZM28.9671 3.65755C31.547 4.92489 33.427 6.64287 34.6598 8.80013L36.3962 7.80786C34.941 5.26113 32.741 3.28311 29.8489 1.86244L28.9671 3.65755ZM34.6674 8.81332C35.9601 10.9975 36.616 13.4828 36.616 16.296H38.616C38.616 13.1572 37.8799 10.3145 36.3886 7.79468L34.6674 8.81332ZM19.04 24.568C21.9492 24.568 24.3077 23.919 25.9125 22.4288L24.5515 20.9632C23.4684 21.969 21.6988 22.568 19.04 22.568V24.568ZM25.9261 22.4158C27.5095 20.889 28.248 18.8037 28.248 16.296H26.248C26.248 18.3963 25.6425 19.911 24.5379 20.9762L25.9261 22.4158ZM28.248 16.296C28.248 13.6633 27.5073 11.5141 25.8628 10.0428C24.2395 8.59031 21.9044 7.952 19.04 7.952V9.952C21.6476 9.952 23.4165 10.5377 24.5292 11.5332C25.6207 12.5098 26.248 14.0327 26.248 16.296H28.248ZM19.04 7.952H11.048V9.952H19.04V7.952ZM10.048 8.952V23.568H12.048V8.952H10.048ZM11.048 24.568H19.04V22.568H11.048V24.568ZM55.1407 48.192L55.6299 47.3199L55.1407 48.192ZM45.7807 39.048L44.9177 39.5532L44.9204 39.5578L45.7807 39.048ZM45.7807 12.552L46.641 13.0618L46.6437 13.0572L45.7807 12.552ZM55.1407 3.336L54.6514 2.46385L54.6514 2.46385L55.1407 3.336ZM81.0607 3.336L80.5669 4.20557L80.5714 4.20814L81.0607 3.336ZM90.3487 12.552L89.4811 13.0493L89.4847 13.0556L89.4884 13.0618L90.3487 12.552ZM90.3487 39.048L89.4857 38.5428L89.4837 38.5461L90.3487 39.048ZM81.0607 48.192L80.5714 47.3199L81.0607 48.192ZM76.0927 40.488L76.5966 41.3518L76.6032 41.3479L76.6098 41.3439L76.0927 40.488ZM81.4927 34.584L82.3837 35.0379L81.4927 34.584ZM81.4927 16.944L80.6016 17.3979L80.6052 17.4048L81.4927 16.944ZM76.0927 11.112L75.5888 11.9758V11.9758L76.0927 11.112ZM60.0367 11.112L59.5405 10.2437L59.5328 10.2482L60.0367 11.112ZM54.6367 16.944L55.5242 17.4048L55.5277 17.3979L54.6367 16.944ZM54.6367 34.584L55.5277 34.1301L54.6367 34.584ZM60.0367 40.488L59.5196 41.3439L59.53 41.3502L59.5406 41.3562L60.0367 40.488ZM68.1007 50.504C63.5605 50.504 59.4101 49.4404 55.6299 47.3199L54.6514 49.0641C58.7433 51.3596 63.2329 52.504 68.1007 52.504V50.504ZM55.6299 47.3199C51.8476 45.198 48.8554 42.2751 46.641 38.5382L44.9204 39.5578C47.3139 43.5969 50.5618 46.77 54.6514 49.0641L55.6299 47.3199ZM46.6437 38.5428C44.4369 34.7728 43.3247 30.5098 43.3247 25.728H41.3247C41.3247 30.8342 42.5165 35.4512 44.9177 39.5532L46.6437 38.5428ZM43.3247 25.728C43.3247 20.9959 44.436 16.7827 46.641 13.0618L44.9204 12.0422C42.5174 16.0973 41.3247 20.6681 41.3247 25.728H43.3247ZM46.6437 13.0572C48.8589 9.27283 51.8506 6.32824 55.6299 4.20814L54.6514 2.46385C50.5587 4.75975 47.3104 7.95917 44.9177 12.0468L46.6437 13.0572ZM55.6299 4.20814C59.4101 2.08758 63.5605 1.024 68.1007 1.024V-0.976C63.2329 -0.976 58.7433 0.168412 54.6514 2.46385L55.6299 4.20814ZM68.1007 1.024C72.6908 1.024 76.8389 2.08845 80.5669 4.20556L81.5545 2.46643C77.5065 0.167551 73.0146 -0.976 68.1007 -0.976V1.024ZM80.5714 4.20814C84.3489 6.32719 87.3145 9.26926 89.4811 13.0493L91.2163 12.0547C88.8709 7.96273 85.6445 4.7608 81.5499 2.46385L80.5714 4.20814ZM89.4884 13.0618C91.6934 16.7827 92.8047 20.9959 92.8047 25.728H94.8047C94.8047 20.6681 93.612 16.0973 91.209 12.0422L89.4884 13.0618ZM92.8047 25.728C92.8047 30.5098 91.6925 34.7728 89.4857 38.5428L91.2117 39.5532C93.6129 35.4512 94.8047 30.8342 94.8047 25.728H92.8047ZM89.4837 38.5461C87.318 42.2787 84.352 45.1991 80.5714 47.3199L81.5499 49.0641C85.6414 46.7689 88.8674 43.5933 91.2136 39.5499L89.4837 38.5461ZM80.5714 47.3199C76.7913 49.4404 72.6409 50.504 68.1007 50.504V52.504C72.9685 52.504 77.4581 51.3596 81.5499 49.0641L80.5714 47.3199ZM68.1007 43.504C71.2776 43.504 74.12 42.7964 76.5966 41.3518L75.5888 39.6242C73.4573 40.8676 70.9718 41.504 68.1007 41.504V43.504ZM76.6098 41.3439C79.0833 39.8495 81.0084 37.7377 82.3837 35.0379L80.6017 34.1301C79.385 36.5183 77.71 38.3425 75.5756 39.6321L76.6098 41.3439ZM82.3837 35.0379C83.763 32.3305 84.4367 29.218 84.4367 25.728H82.4367C82.4367 28.958 81.8144 31.7495 80.6017 34.1301L82.3837 35.0379ZM84.4367 25.728C84.4367 22.2386 83.7632 19.1467 82.3802 16.4832L80.6052 17.4048C81.8142 19.7332 82.4367 22.4974 82.4367 25.728H84.4367ZM82.3837 16.4901C81.0071 13.7877 79.078 11.6957 76.5966 10.2482L75.5888 11.9758C77.7153 13.2162 79.3863 15.0123 80.6017 17.3979L82.3837 16.4901ZM76.5966 10.2482C74.12 8.80359 71.2776 8.096 68.1007 8.096V10.096C70.9718 10.096 73.4573 10.7324 75.5888 11.9758L76.5966 10.2482ZM68.1007 8.096C64.9233 8.096 62.0606 8.8037 59.5406 10.2438L60.5328 11.9802C62.7167 10.7323 65.23 10.096 68.1007 10.096V8.096ZM59.5328 10.2482C57.0513 11.6957 55.1223 13.7877 53.7456 16.4901L55.5277 17.3979C56.7431 15.0123 58.414 13.2162 60.5406 11.9758L59.5328 10.2482ZM53.7492 16.4832C52.3662 19.1467 51.6927 22.2386 51.6927 25.728H53.6927C53.6927 22.4974 54.3152 19.7332 55.5242 17.4048L53.7492 16.4832ZM51.6927 25.728C51.6927 29.218 52.3664 32.3305 53.7456 35.0379L55.5277 34.1301C54.315 31.7495 53.6927 28.958 53.6927 25.728H51.6927ZM53.7456 35.0379C55.121 37.7377 57.046 39.8495 59.5196 41.3439L60.5538 39.6321C58.4193 38.3425 56.7444 36.5183 55.5277 34.1301L53.7456 35.0379ZM59.5406 41.3562C62.0606 42.7963 64.9233 43.504 68.1007 43.504V41.504C65.23 41.504 62.7167 40.8677 60.5328 39.6198L59.5406 41.3562ZM127.224 51L126.354 51.4927L126.641 52H127.224V51ZM116.136 31.416L117.006 30.9233L116.719 30.416H116.136V31.416ZM111.384 31.416V30.416H110.384V31.416H111.384ZM111.384 51V52H112.384V51H111.384ZM101.304 51H100.304V52H101.304V51ZM101.304 0.743999V-0.256001H100.304V0.743999H101.304ZM130.104 2.832L129.65 3.72336L129.663 3.72955L130.104 2.832ZM136.224 8.376L135.356 8.87214L135.362 8.8827L135.368 8.89312L136.224 8.376ZM135.432 25.152L136.241 25.7402L136.246 25.7332L135.432 25.152ZM126.864 30.624L126.607 29.6576L125.332 29.9964L126.003 31.1322L126.864 30.624ZM138.888 51V52H140.639L139.749 50.4918L138.888 51ZM111.384 23.856H110.384V24.856H111.384V23.856ZM125.928 21.912L126.622 22.6318L126.629 22.6255L126.635 22.6191L125.928 21.912ZM125.928 11.04L125.234 11.7598L125.241 11.7664L125.247 11.7728L125.928 11.04ZM111.384 9.096V8.096H110.384V9.096H111.384ZM128.094 50.5073L117.006 30.9233L115.266 31.9087L126.354 51.4927L128.094 50.5073ZM116.136 30.416H111.384V32.416H116.136V30.416ZM110.384 31.416V51H112.384V31.416H110.384ZM111.384 50H101.304V52H111.384V50ZM102.304 51V0.743999H100.304V51H102.304ZM101.304 1.744H120.168V-0.256001H101.304V1.744ZM120.168 1.744C123.939 1.744 127.087 2.41924 129.65 3.72328L130.557 1.94072C127.648 0.460758 124.173 -0.256001 120.168 -0.256001V1.744ZM129.663 3.72955C132.243 4.99689 134.123 6.71487 135.356 8.87214L137.092 7.87986C135.637 5.33313 133.437 3.35511 130.545 1.93444L129.663 3.72955ZM135.368 8.89312C136.659 11.0301 137.312 13.441 137.312 16.152H139.312C139.312 13.103 138.573 10.3299 137.08 7.85888L135.368 8.89312ZM137.312 16.152C137.312 19.2562 136.417 22.0528 134.618 24.5708L136.246 25.7332C138.287 22.8752 139.312 19.6718 139.312 16.152H137.312ZM134.623 24.5638C132.864 26.9826 130.224 28.6962 126.607 29.6576L127.121 31.5904C131.088 30.5358 134.16 28.6014 136.241 25.7402L134.623 24.5638ZM126.003 31.1322L138.027 51.5082L139.749 50.4918L127.725 30.1158L126.003 31.1322ZM138.888 50H127.224V52H138.888V50ZM111.384 24.856H119.808V22.856H111.384V24.856ZM119.808 24.856C122.683 24.856 125.02 24.1762 126.622 22.6318L125.234 21.1922C124.147 22.2398 122.405 22.856 119.808 22.856V24.856ZM126.635 22.6191C128.209 21.0451 128.944 18.9185 128.944 16.368H126.944C126.944 18.5215 126.335 20.0909 125.221 21.2049L126.635 22.6191ZM128.944 16.368C128.944 13.862 128.206 11.7906 126.608 10.3072L125.247 11.7728C126.338 12.7854 126.944 14.266 126.944 16.368H128.944ZM126.622 10.3202C125.02 8.77575 122.683 8.096 119.808 8.096V10.096C122.405 10.096 124.147 10.7122 125.234 11.7598L126.622 10.3202ZM119.808 8.096H111.384V10.096H119.808V8.096ZM110.384 9.096V23.856H112.384V9.096H110.384ZM181.629 0.743999H182.629V-0.256001H181.629V0.743999ZM181.629 8.88V9.88H182.629V8.88H181.629ZM168.237 8.88V7.88H167.237V8.88H168.237ZM168.237 51V52H169.237V51H168.237ZM158.157 51H157.157V52H158.157V51ZM158.157 8.88H159.157V7.88H158.157V8.88ZM144.765 8.88H143.765V9.88H144.765V8.88ZM144.765 0.743999V-0.256001H143.765V0.743999H144.765ZM180.629 0.743999V8.88H182.629V0.743999H180.629ZM181.629 7.88H168.237V9.88H181.629V7.88ZM167.237 8.88V51H169.237V8.88H167.237ZM168.237 50H158.157V52H168.237V50ZM159.157 51V8.88H157.157V51H159.157ZM158.157 7.88H144.765V9.88H158.157V7.88ZM145.765 8.88V0.743999H143.765V8.88H145.765ZM144.765 1.744H181.629V-0.256001H144.765V1.744ZM220.016 0.743999H221.016V-0.256001H220.016V0.743999ZM220.016 8.88V9.88H221.016V8.88H220.016ZM199.064 8.88V7.88H198.064V8.88H199.064ZM199.064 21.768H198.064V22.768H199.064V21.768ZM215.12 21.768H216.12V20.768H215.12V21.768ZM215.12 29.76V30.76H216.12V29.76H215.12ZM199.064 29.76V28.76H198.064V29.76H199.064ZM199.064 51V52H200.064V51H199.064ZM188.984 51H187.984V52H188.984V51ZM188.984 0.743999V-0.256001H187.984V0.743999H188.984ZM219.016 0.743999V8.88H221.016V0.743999H219.016ZM220.016 7.88H199.064V9.88H220.016V7.88ZM198.064 8.88V21.768H200.064V8.88H198.064ZM199.064 22.768H215.12V20.768H199.064V22.768ZM214.12 21.768V29.76H216.12V21.768H214.12ZM215.12 28.76H199.064V30.76H215.12V28.76ZM198.064 29.76V51H200.064V29.76H198.064ZM199.064 50H188.984V52H199.064V50ZM189.984 51V0.743999H187.984V51H189.984ZM188.984 1.744H220.016V-0.256001H188.984V1.744ZM237.531 48.192L238.021 47.3199L237.531 48.192ZM228.171 39.048L227.308 39.5532L227.311 39.5578L228.171 39.048ZM228.171 12.552L229.032 13.0618L229.034 13.0572L228.171 12.552ZM237.531 3.336L237.042 2.46385V2.46385L237.531 3.336ZM263.451 3.336L262.957 4.20557L262.962 4.20814L263.451 3.336ZM272.739 12.552L271.872 13.0493L271.875 13.0556L271.879 13.0618L272.739 12.552ZM272.739 39.048L271.876 38.5428L271.874 38.5461L272.739 39.048ZM263.451 48.192L262.962 47.3199L263.451 48.192ZM258.483 40.488L258.987 41.3518L258.994 41.3479L259 41.3439L258.483 40.488ZM263.883 34.584L264.774 35.0379L263.883 34.584ZM263.883 16.944L262.992 17.3979L262.996 17.4048L263.883 16.944ZM258.483 11.112L257.979 11.9758V11.9758L258.483 11.112ZM242.427 11.112L241.931 10.2437L241.923 10.2482L242.427 11.112ZM237.027 16.944L237.915 17.4048L237.918 17.3979L237.027 16.944ZM237.027 34.584L237.918 34.1301L237.027 34.584ZM242.427 40.488L241.91 41.3439L241.921 41.3502L241.931 41.3562L242.427 40.488ZM250.491 50.504C245.951 50.504 241.801 49.4404 238.021 47.3199L237.042 49.0641C241.134 51.3596 245.624 52.504 250.491 52.504V50.504ZM238.021 47.3199C234.238 45.198 231.246 42.2751 229.032 38.5382L227.311 39.5578C229.705 43.5969 232.952 46.77 237.042 49.0641L238.021 47.3199ZM229.034 38.5428C226.828 34.7728 225.715 30.5098 225.715 25.728H223.715C223.715 30.8342 224.907 35.4512 227.308 39.5532L229.034 38.5428ZM225.715 25.728C225.715 20.9959 226.827 16.7827 229.032 13.0618L227.311 12.0422C224.908 16.0973 223.715 20.6681 223.715 25.728H225.715ZM229.034 13.0572C231.25 9.27283 234.241 6.32824 238.021 4.20814L237.042 2.46385C232.949 4.75975 229.701 7.95917 227.308 12.0468L229.034 13.0572ZM238.021 4.20814C241.801 2.08758 245.951 1.024 250.491 1.024V-0.976C245.624 -0.976 241.134 0.168412 237.042 2.46385L238.021 4.20814ZM250.491 1.024C255.081 1.024 259.23 2.08845 262.957 4.20556L263.945 2.46643C259.897 0.167551 255.405 -0.976 250.491 -0.976V1.024ZM262.962 4.20814C266.74 6.32719 269.705 9.26926 271.872 13.0493L273.607 12.0547C271.262 7.96273 268.035 4.7608 263.941 2.46385L262.962 4.20814ZM271.879 13.0618C274.084 16.7827 275.195 20.9959 275.195 25.728H277.195C277.195 20.6681 276.003 16.0973 273.6 12.0422L271.879 13.0618ZM275.195 25.728C275.195 30.5098 274.083 34.7728 271.876 38.5428L273.602 39.5532C276.004 35.4512 277.195 30.8342 277.195 25.728H275.195ZM271.874 38.5461C269.709 42.2787 266.743 45.1991 262.962 47.3199L263.941 49.0641C268.032 46.7689 271.258 43.5933 273.604 39.5499L271.874 38.5461ZM262.962 47.3199C259.182 49.4404 255.031 50.504 250.491 50.504V52.504C255.359 52.504 259.849 51.3596 263.941 49.0641L262.962 47.3199ZM250.491 43.504C253.668 43.504 256.511 42.7964 258.987 41.3518L257.979 39.6242C255.848 40.8676 253.362 41.504 250.491 41.504V43.504ZM259 41.3439C261.474 39.8495 263.399 37.7377 264.774 35.0379L262.992 34.1301C261.776 36.5183 260.101 38.3425 257.966 39.6321L259 41.3439ZM264.774 35.0379C266.154 32.3305 266.827 29.218 266.827 25.728H264.827C264.827 28.958 264.205 31.7495 262.992 34.1301L264.774 35.0379ZM266.827 25.728C266.827 22.2386 266.154 19.1467 264.771 16.4832L262.996 17.4048C264.205 19.7332 264.827 22.4974 264.827 25.728H266.827ZM264.774 16.4901C263.398 13.7877 261.469 11.6957 258.987 10.2482L257.979 11.9758C260.106 13.2162 261.777 15.0123 262.992 17.3979L264.774 16.4901ZM258.987 10.2482C256.511 8.80359 253.668 8.096 250.491 8.096V10.096C253.362 10.096 255.848 10.7324 257.979 11.9758L258.987 10.2482ZM250.491 8.096C247.314 8.096 244.451 8.8037 241.931 10.2438L242.923 11.9802C245.107 10.7323 247.621 10.096 250.491 10.096V8.096ZM241.923 10.2482C239.442 11.6957 237.513 13.7877 236.136 16.4901L237.918 17.3979C239.134 15.0123 240.805 13.2162 242.931 11.9758L241.923 10.2482ZM236.14 16.4832C234.757 19.1467 234.083 22.2386 234.083 25.728H236.083C236.083 22.4974 236.706 19.7332 237.915 17.4048L236.14 16.4832ZM234.083 25.728C234.083 29.218 234.757 32.3305 236.136 35.0379L237.918 34.1301C236.706 31.7495 236.083 28.958 236.083 25.728H234.083ZM236.136 35.0379C237.512 37.7377 239.437 39.8495 241.91 41.3439L242.944 39.6321C240.81 38.3425 239.135 36.5183 237.918 34.1301L236.136 35.0379ZM241.931 41.3562C244.451 42.7963 247.314 43.504 250.491 43.504V41.504C247.621 41.504 245.107 40.8677 242.923 39.6198L241.931 41.3562ZM293.775 43.008H292.775V44.008H293.775V43.008ZM310.335 43.008H311.335V42.008H310.335V43.008ZM310.335 51V52H311.335V51H310.335ZM283.695 51H282.695V52H283.695V51ZM283.695 0.743999V-0.256001H282.695V0.743999H283.695ZM293.775 0.743999H294.775V-0.256001H293.775V0.743999ZM293.775 44.008H310.335V42.008H293.775V44.008ZM309.335 43.008V51H311.335V43.008H309.335ZM310.335 50H283.695V52H310.335V50ZM284.695 51V0.743999H282.695V51H284.695ZM283.695 1.744H293.775V-0.256001H283.695V1.744ZM292.775 0.743999V43.008H294.775V0.743999H292.775ZM326.821 0.743999H327.821V-0.256001H326.821V0.743999ZM326.821 51V52H327.821V51H326.821ZM316.741 51H315.741V52H316.741V51ZM316.741 0.743999V-0.256001H315.741V0.743999H316.741ZM325.821 0.743999V51H327.821V0.743999H325.821ZM326.821 50H316.741V52H326.821V50ZM317.741 51V0.743999H315.741V51H317.741ZM316.741 1.744H326.821V-0.256001H316.741V1.744ZM347.148 48.192L347.638 47.3199L347.148 48.192ZM337.789 39.048L336.925 39.5532L336.928 39.5578L337.789 39.048ZM337.789 12.552L338.649 13.0618L338.652 13.0572L337.789 12.552ZM347.148 3.336L346.659 2.46385V2.46385L347.148 3.336ZM373.069 3.336L372.575 4.20557L372.579 4.20814L373.069 3.336ZM382.357 12.552L381.489 13.0493L381.493 13.0556L381.496 13.0618L382.357 12.552ZM382.357 39.048L381.493 38.5428L381.492 38.5461L382.357 39.048ZM373.069 48.192L372.579 47.3199L373.069 48.192ZM368.1 40.488L368.604 41.3518L368.611 41.3479L368.618 41.3439L368.1 40.488ZM373.501 34.584L374.392 35.0379L373.501 34.584ZM373.501 16.944L372.609 17.3979L372.613 17.4048L373.501 16.944ZM368.1 11.112L367.597 11.9758V11.9758L368.1 11.112ZM352.044 11.112L351.548 10.2437L351.541 10.2482L352.044 11.112ZM346.645 16.944L347.532 17.4048L347.536 17.3979L346.645 16.944ZM346.645 34.584L347.536 34.1301L346.645 34.584ZM352.044 40.488L351.527 41.3439L351.538 41.3502L351.548 41.3562L352.044 40.488ZM360.108 50.504C355.568 50.504 351.418 49.4404 347.638 47.3199L346.659 49.0641C350.751 51.3596 355.241 52.504 360.108 52.504V50.504ZM347.638 47.3199C343.855 45.198 340.863 42.2751 338.649 38.5382L336.928 39.5578C339.322 43.5969 342.57 46.77 346.659 49.0641L347.638 47.3199ZM338.652 38.5428C336.445 34.7728 335.332 30.5098 335.332 25.728H333.332C333.332 30.8342 334.524 35.4512 336.925 39.5532L338.652 38.5428ZM335.332 25.728C335.332 20.9959 336.444 16.7827 338.649 13.0618L336.928 12.0422C334.525 16.0973 333.332 20.6681 333.332 25.728H335.332ZM338.652 13.0572C340.867 9.27283 343.858 6.32824 347.638 4.20814L346.659 2.46385C342.567 4.75975 339.318 7.95917 336.925 12.0468L338.652 13.0572ZM347.638 4.20814C351.418 2.08758 355.568 1.024 360.108 1.024V-0.976C355.241 -0.976 350.751 0.168412 346.659 2.46385L347.638 4.20814ZM360.108 1.024C364.699 1.024 368.847 2.08845 372.575 4.20556L373.562 2.46643C369.514 0.167551 365.022 -0.976 360.108 -0.976V1.024ZM372.579 4.20814C376.357 6.32719 379.322 9.26926 381.489 13.0493L383.224 12.0547C380.879 7.96273 377.652 4.7608 373.558 2.46385L372.579 4.20814ZM381.496 13.0618C383.701 16.7827 384.812 20.9959 384.812 25.728H386.812C386.812 20.6681 385.62 16.0973 383.217 12.0422L381.496 13.0618ZM384.812 25.728C384.812 30.5098 383.7 34.7728 381.493 38.5428L383.22 39.5532C385.621 35.4512 386.812 30.8342 386.812 25.728H384.812ZM381.492 38.5461C379.326 42.2787 376.36 45.1991 372.579 47.3199L373.558 49.0641C377.649 46.7689 380.875 43.5933 383.221 39.5499L381.492 38.5461ZM372.579 47.3199C368.799 49.4404 364.649 50.504 360.108 50.504V52.504C364.976 52.504 369.466 51.3596 373.558 49.0641L372.579 47.3199ZM360.108 43.504C363.285 43.504 366.128 42.7964 368.604 41.3518L367.597 39.6242C365.465 40.8676 362.98 41.504 360.108 41.504V43.504ZM368.618 41.3439C371.091 39.8495 373.016 37.7377 374.392 35.0379L372.609 34.1301C371.393 36.5183 369.718 38.3425 367.583 39.6321L368.618 41.3439ZM374.392 35.0379C375.771 32.3305 376.444 29.218 376.444 25.728H374.444C374.444 28.958 373.822 31.7495 372.609 34.1301L374.392 35.0379ZM376.444 25.728C376.444 22.2386 375.771 19.1467 374.388 16.4832L372.613 17.4048C373.822 19.7332 374.444 22.4974 374.444 25.728H376.444ZM374.392 16.4901C373.015 13.7877 371.086 11.6957 368.604 10.2482L367.597 11.9758C369.723 13.2162 371.394 15.0123 372.609 17.3979L374.392 16.4901ZM368.604 10.2482C366.128 8.80359 363.285 8.096 360.108 8.096V10.096C362.98 10.096 365.465 10.7324 367.597 11.9758L368.604 10.2482ZM360.108 8.096C356.931 8.096 354.068 8.8037 351.548 10.2438L352.541 11.9802C354.725 10.7323 357.238 10.096 360.108 10.096V8.096ZM351.541 10.2482C349.059 11.6957 347.13 13.7877 345.753 16.4901L347.536 17.3979C348.751 15.0123 350.422 13.2162 352.548 11.9758L351.541 10.2482ZM345.757 16.4832C344.374 19.1467 343.701 22.2386 343.701 25.728H345.701C345.701 22.4974 346.323 19.7332 347.532 17.4048L345.757 16.4832ZM343.701 25.728C343.701 29.218 344.374 32.3305 345.753 35.0379L347.536 34.1301C346.323 31.7495 345.701 28.958 345.701 25.728H343.701ZM345.753 35.0379C347.129 37.7377 349.054 39.8495 351.527 41.3439L352.562 39.6321C350.427 38.3425 348.752 36.5183 347.536 34.1301L345.753 35.0379ZM351.548 41.3562C354.068 42.7963 356.931 43.504 360.108 43.504V41.504C357.238 41.504 354.725 40.8677 352.541 39.6198L351.548 41.3562Z" fill="white" fill-opacity="0.5"/>
</svg>
