<svg width="1391" height="187" viewBox="0 0 1391 187" fill="none" xmlns="http://www.w3.org/2000/svg">
<path d="M126.26 86.98L125.384 86.4974L125.38 86.5043L125.377 86.5113L126.26 86.98ZM104.68 107.52L104.214 106.635L104.208 106.639L104.68 107.52ZM37.34 115.32V114.32H36.34V115.32H37.34ZM37.34 185V186H38.34V185H37.34ZM0.940002 185H-0.0599976V186H0.940002V185ZM0.940002 3.52V2.52H-0.0599976V3.52H0.940002ZM103.64 10.8L103.199 11.6975L103.64 10.8ZM125.74 30.82L124.872 31.3161L124.876 31.3227L124.879 31.3293L125.74 30.82ZM88.56 79.18L89.2405 79.9128L89.2474 79.9064L89.2541 79.8998L88.56 79.18ZM37.34 33.16V32.16H36.34V33.16H37.34ZM37.34 85.94H36.34V86.94H37.34V85.94ZM132.28 59.68C132.28 69.2181 129.983 78.152 125.384 86.4974L127.136 87.4626C131.897 78.8213 134.28 69.5553 134.28 59.68H132.28ZM125.377 86.5113C120.979 94.7998 113.946 101.513 104.214 106.635L105.146 108.405C115.174 103.127 122.528 96.1469 127.143 87.4487L125.377 86.5113ZM104.208 106.639C94.6886 111.738 82.5576 114.32 67.76 114.32V116.32C82.7757 116.32 95.2581 113.702 105.152 108.401L104.208 106.639ZM67.76 114.32H37.34V116.32H67.76V114.32ZM36.34 115.32V185H38.34V115.32H36.34ZM37.34 184H0.940002V186H37.34V184ZM1.94 185V3.52H-0.0599976V185H1.94ZM0.940002 4.52H67.76V2.52H0.940002V4.52ZM67.76 4.52C81.688 4.52 93.4888 6.92756 103.199 11.6975L104.081 9.90244C94.0312 4.96577 81.912 2.52 67.76 2.52V4.52ZM103.199 11.6975C112.923 16.4742 120.13 23.0175 124.872 31.3161L126.608 30.3238C121.644 21.6358 114.117 14.8324 104.081 9.90244L103.199 11.6975ZM124.879 31.3293C129.807 39.6549 132.28 49.0961 132.28 59.68H134.28C134.28 48.7706 131.727 38.9718 126.601 30.3107L124.879 31.3293ZM66.2 86.94C76.3786 86.94 84.1263 84.6616 89.2405 79.9128L87.8796 78.4472C83.287 82.7117 76.1281 84.94 66.2 84.94V86.94ZM89.2541 79.8998C94.3469 74.989 96.84 68.2037 96.84 59.68H94.84C94.84 67.7963 92.4798 74.011 87.8659 78.4602L89.2541 79.8998ZM96.84 59.68C96.84 50.6553 94.3133 43.7121 89.0968 39.0447C83.9015 34.3963 76.2084 32.16 66.2 32.16V34.16C75.9516 34.16 83.0785 36.3437 87.7632 40.5352C92.4267 44.7078 94.84 51.0247 94.84 59.68H96.84ZM66.2 32.16H37.34V34.16H66.2V32.16ZM36.34 33.16V85.94H38.34V33.16H36.34ZM37.34 86.94H66.2V84.94H37.34V86.94ZM196.564 174.86L197.053 173.988L196.564 174.86ZM162.764 141.84L161.901 142.345L161.903 142.35L162.764 141.84ZM162.764 46.16L163.624 46.6698L163.627 46.6652L162.764 46.16ZM196.564 12.88L196.074 12.0078L196.564 12.88ZM290.164 12.88L289.67 13.7496L289.674 13.7521L290.164 12.88ZM323.704 46.16L322.836 46.6573L322.84 46.6636L322.843 46.6698L323.704 46.16ZM323.704 141.84L322.841 141.335L322.839 141.338L323.704 141.84ZM290.164 174.86L289.674 173.988L290.164 174.86ZM272.224 147.04L272.727 147.904L272.734 147.9L272.741 147.896L272.224 147.04ZM291.724 125.72L292.615 126.174L291.724 125.72ZM291.724 62.02L290.833 62.4739L290.836 62.4808L291.724 62.02ZM272.224 40.96L271.72 41.8238L272.224 40.96ZM214.244 40.96L213.747 40.0917L213.74 40.0962L214.244 40.96ZM194.744 62.02L195.631 62.4808L195.635 62.4739L194.744 62.02ZM194.744 125.72L195.635 125.266L194.744 125.72ZM214.244 147.04L213.726 147.896L213.737 147.902L213.747 147.908L214.244 147.04ZM243.364 185.82C226.541 185.82 211.11 181.874 197.053 173.988L196.074 175.732C210.444 183.793 226.213 187.82 243.364 187.82V185.82ZM197.053 173.988C182.993 166.101 171.854 155.219 163.624 141.33L161.903 142.35C170.313 156.541 181.707 167.673 196.074 175.732L197.053 173.988ZM163.627 141.335C155.404 127.288 151.284 111.431 151.284 93.74H149.284C149.284 111.755 153.483 127.966 161.901 142.345L163.627 141.335ZM151.284 93.74C151.284 76.2239 155.403 60.5427 163.624 46.6698L161.903 45.6502C153.484 59.8573 149.284 75.8961 149.284 93.74H151.284ZM163.627 46.6652C171.858 32.6035 182.996 21.6376 197.053 13.7521L196.074 12.0078C181.704 20.0691 170.309 31.2898 161.901 45.6548L163.627 46.6652ZM197.053 13.7521C211.11 5.86625 226.541 1.92 243.364 1.92V-0.0800009C226.213 -0.0800009 210.444 3.94707 196.074 12.0078L197.053 13.7521ZM243.364 1.92C260.362 1.92 275.79 5.86711 289.67 13.7495L290.657 12.0104C276.457 3.94621 260.685 -0.0800009 243.364 -0.0800009V1.92ZM289.674 13.7521C303.729 21.6365 314.779 32.5999 322.836 46.6573L324.571 45.6627C316.335 31.2934 305.025 20.0701 290.653 12.0078L289.674 13.7521ZM322.843 46.6698C331.064 60.5427 335.184 76.2239 335.184 93.74H337.184C337.184 75.8961 332.983 59.8573 324.564 45.6502L322.843 46.6698ZM335.184 93.74C335.184 111.431 331.063 127.288 322.841 141.335L324.567 142.345C332.984 127.966 337.184 111.755 337.184 93.74H335.184ZM322.839 141.338C314.782 155.223 303.732 166.102 289.674 173.988L290.653 175.732C305.022 167.672 316.332 156.537 324.569 142.342L322.839 141.338ZM289.674 173.988C275.617 181.874 260.186 185.82 243.364 185.82V187.82C260.514 187.82 276.284 183.793 290.653 175.732L289.674 173.988ZM243.364 155.32C254.437 155.32 264.235 152.858 272.727 147.904L271.72 146.176C263.572 150.929 254.131 153.32 243.364 153.32V155.32ZM272.741 147.896C281.23 142.767 287.855 135.516 292.615 126.174L290.833 125.266C286.232 134.297 279.857 141.26 271.706 146.184L272.741 147.896ZM292.615 126.174C297.378 116.824 299.744 106.003 299.744 93.74H297.744C297.744 105.743 295.429 116.243 290.833 125.266L292.615 126.174ZM299.744 93.74C299.744 81.4773 297.378 70.7401 292.611 61.5592L290.836 62.4808C295.429 71.3266 297.744 81.736 297.744 93.74H299.744ZM292.615 61.5661C287.854 52.2211 281.225 45.0531 272.727 40.0962L271.72 41.8238C279.862 46.5736 286.233 53.4456 290.833 62.4739L292.615 61.5661ZM272.727 40.0962C264.235 35.1423 254.437 32.68 243.364 32.68V34.68C254.131 34.68 263.572 37.0711 271.72 41.8238L272.727 40.0962ZM243.364 32.68C232.29 32.68 222.409 35.1424 213.747 40.0918L214.74 41.8282C223.065 37.071 232.597 34.68 243.364 34.68V32.68ZM213.74 40.0962C205.242 45.0531 198.613 52.2211 193.853 61.5661L195.635 62.4739C200.234 53.4456 206.605 46.5736 214.747 41.8238L213.74 40.0962ZM193.856 61.5592C189.089 70.7401 186.724 81.4773 186.724 93.74H188.724C188.724 81.736 191.038 71.3266 195.631 62.4808L193.856 61.5592ZM186.724 93.74C186.724 106.003 189.089 116.824 193.853 126.174L195.635 125.266C191.038 116.243 188.724 105.743 188.724 93.74H186.724ZM193.853 126.174C198.612 135.516 205.237 142.767 213.726 147.896L214.761 146.184C206.61 141.26 200.235 134.297 195.635 125.266L193.853 126.174ZM213.747 147.908C222.409 152.858 232.29 155.32 243.364 155.32V153.32C232.597 153.32 223.065 150.929 214.74 146.172L213.747 147.908ZM456.864 185L455.994 185.493L456.281 186H456.864V185ZM416.824 114.28L417.694 113.787L417.407 113.28H416.824V114.28ZM399.664 114.28V113.28H398.664V114.28H399.664ZM399.664 185V186H400.664V185H399.664ZM363.264 185H362.264V186H363.264V185ZM363.264 3.52V2.52H362.264V3.52H363.264ZM467.264 11.06L466.811 11.9514L466.823 11.9575L467.264 11.06ZM489.364 31.08L488.496 31.5761L488.502 31.5867L488.508 31.5971L489.364 31.08ZM486.504 91.66L487.313 92.2482L487.318 92.2412L486.504 91.66ZM455.564 111.42L455.307 110.454L454.033 110.792L454.703 111.928L455.564 111.42ZM498.984 185V186H500.735L499.845 184.492L498.984 185ZM399.664 86.98H398.664V87.98H399.664V86.98ZM452.184 79.96L452.878 80.6798L452.885 80.6735L452.891 80.6671L452.184 79.96ZM452.184 40.7L451.49 41.4198L451.497 41.4264L451.504 41.4328L452.184 40.7ZM399.664 33.68V32.68H398.664V33.68H399.664ZM457.734 184.507L417.694 113.787L415.954 114.773L455.994 185.493L457.734 184.507ZM416.824 113.28H399.664V115.28H416.824V113.28ZM398.664 114.28V185H400.664V114.28H398.664ZM399.664 184H363.264V186H399.664V184ZM364.264 185V3.52H362.264V185H364.264ZM363.264 4.52H431.384V2.52H363.264V4.52ZM431.384 4.52C445.308 4.52 457.104 7.01257 466.811 11.9513L467.718 10.1687C457.665 5.05409 445.541 2.52 431.384 2.52V4.52ZM466.823 11.9575C476.547 16.7342 483.754 23.2775 488.496 31.5761L490.232 30.5839C485.268 21.8958 477.741 15.0924 467.705 10.1624L466.823 11.9575ZM488.508 31.5971C493.434 39.7501 495.904 48.929 495.904 59.16H497.904C497.904 48.591 495.348 39.0499 490.22 30.5629L488.508 31.5971ZM495.904 59.16C495.904 70.9122 492.502 81.5422 485.69 91.0788L487.318 92.2412C494.373 82.3645 497.904 71.3278 497.904 59.16H495.904ZM485.695 91.0718C478.923 100.384 468.825 106.86 455.307 110.454L455.821 112.386C469.69 108.7 480.219 102.003 487.313 92.2482L485.695 91.0718ZM454.703 111.928L498.123 185.508L499.845 184.492L456.425 110.912L454.703 111.928ZM498.984 184H456.864V186H498.984V184ZM399.664 87.98H430.084V85.98H399.664V87.98ZM430.084 87.98C440.104 87.98 447.767 85.6082 452.878 80.6798L451.49 79.2402C446.894 83.6718 439.825 85.98 430.084 85.98V87.98ZM452.891 80.6671C457.975 75.5838 460.464 68.6318 460.464 59.94H458.464C458.464 68.2348 456.1 74.6295 451.477 79.2529L452.891 80.6671ZM460.464 59.94C460.464 51.4179 457.971 44.7093 452.865 39.9672L451.504 41.4328C456.104 45.7041 458.464 51.822 458.464 59.94H460.464ZM452.878 39.9802C447.767 35.0518 440.104 32.68 430.084 32.68V34.68C439.825 34.68 446.894 36.9882 451.49 41.4198L452.878 39.9802ZM430.084 32.68H399.664V34.68H430.084V32.68ZM398.664 33.68V86.98H400.664V33.68H398.664ZM653.327 3.52H654.327V2.52H653.327V3.52ZM653.327 32.9V33.9H654.327V32.9H653.327ZM604.967 32.9V31.9H603.967V32.9H604.967ZM604.967 185V186H605.967V185H604.967ZM568.567 185H567.567V186H568.567V185ZM568.567 32.9H569.567V31.9H568.567V32.9ZM520.207 32.9H519.207V33.9H520.207V32.9ZM520.207 3.52V2.52H519.207V3.52H520.207ZM652.327 3.52V32.9H654.327V3.52H652.327ZM653.327 31.9H604.967V33.9H653.327V31.9ZM603.967 32.9V185H605.967V32.9H603.967ZM604.967 184H568.567V186H604.967V184ZM569.567 185V32.9H567.567V185H569.567ZM568.567 31.9H520.207V33.9H568.567V31.9ZM521.207 32.9V3.52H519.207V32.9H521.207ZM520.207 4.52H653.327V2.52H520.207V4.52ZM791.945 3.52H792.945V2.52H791.945V3.52ZM791.945 32.9V33.9H792.945V32.9H791.945ZM716.285 32.9V31.9H715.285V32.9H716.285ZM716.285 79.44H715.285V80.44H716.285V79.44ZM774.265 79.44H775.265V78.44H774.265V79.44ZM774.265 108.3V109.3H775.265V108.3H774.265ZM716.285 108.3V107.3H715.285V108.3H716.285ZM716.285 185V186H717.285V185H716.285ZM679.885 185H678.885V186H679.885V185ZM679.885 3.52V2.52H678.885V3.52H679.885ZM790.945 3.52V32.9H792.945V3.52H790.945ZM791.945 31.9H716.285V33.9H791.945V31.9ZM715.285 32.9V79.44H717.285V32.9H715.285ZM716.285 80.44H774.265V78.44H716.285V80.44ZM773.265 79.44V108.3H775.265V79.44H773.265ZM774.265 107.3H716.285V109.3H774.265V107.3ZM715.285 108.3V185H717.285V108.3H715.285ZM716.285 184H679.885V186H716.285V184ZM680.885 185V3.52H678.885V185H680.885ZM679.885 4.52H791.945V2.52H679.885V4.52ZM855.196 174.86L855.686 173.988L855.196 174.86ZM821.396 141.84L820.533 142.345L820.536 142.35L821.396 141.84ZM821.396 46.16L822.257 46.6698L822.259 46.6652L821.396 46.16ZM855.196 12.88L854.707 12.0078L855.196 12.88ZM948.796 12.88L948.303 13.7496L948.307 13.7521L948.796 12.88ZM982.336 46.16L981.469 46.6573L981.472 46.6636L981.476 46.6698L982.336 46.16ZM982.336 141.84L981.473 141.335L981.471 141.338L982.336 141.84ZM948.796 174.86L948.307 173.988L948.796 174.86ZM930.856 147.04L931.36 147.904L931.367 147.9L931.374 147.896L930.856 147.04ZM950.356 125.72L951.247 126.174L950.356 125.72ZM950.356 62.02L949.465 62.4739L949.469 62.4808L950.356 62.02ZM930.856 40.96L930.353 41.8238L930.856 40.96ZM872.876 40.96L872.38 40.0917L872.373 40.0962L872.876 40.96ZM853.376 62.02L854.264 62.4808L854.267 62.4739L853.376 62.02ZM853.376 125.72L854.267 125.266L853.376 125.72ZM872.876 147.04L872.359 147.896L872.37 147.902L872.38 147.908L872.876 147.04ZM901.996 185.82C885.174 185.82 869.743 181.874 855.686 173.988L854.707 175.732C869.076 183.793 884.846 187.82 901.996 187.82V185.82ZM855.686 173.988C841.626 166.101 830.487 155.219 822.257 141.33L820.536 142.35C828.946 156.541 840.34 167.673 854.707 175.732L855.686 173.988ZM822.259 141.335C814.037 127.288 809.916 111.431 809.916 93.74H807.916C807.916 111.755 812.116 127.966 820.533 142.345L822.259 141.335ZM809.916 93.74C809.916 76.2239 814.036 60.5427 822.257 46.6698L820.536 45.6502C812.117 59.8573 807.916 75.8961 807.916 93.74H809.916ZM822.259 46.6652C830.491 32.6035 841.629 21.6376 855.686 13.7521L854.707 12.0078C840.337 20.0691 828.942 31.2898 820.533 45.6548L822.259 46.6652ZM855.686 13.7521C869.743 5.86625 885.174 1.92 901.996 1.92V-0.0800009C884.846 -0.0800009 869.076 3.94707 854.707 12.0078L855.686 13.7521ZM901.996 1.92C918.995 1.92 934.423 5.86711 948.303 13.7495L949.29 12.0104C935.09 3.94621 919.318 -0.0800009 901.996 -0.0800009V1.92ZM948.307 13.7521C962.362 21.6365 973.412 32.5999 981.469 46.6573L983.204 45.6627C974.968 31.2934 963.658 20.0701 949.286 12.0078L948.307 13.7521ZM981.476 46.6698C989.697 60.5427 993.816 76.2239 993.816 93.74H995.816C995.816 75.8961 991.616 59.8573 983.197 45.6502L981.476 46.6698ZM993.816 93.74C993.816 111.431 989.696 127.288 981.473 141.335L983.199 142.345C991.617 127.966 995.816 111.755 995.816 93.74H993.816ZM981.471 141.338C973.415 155.223 962.365 166.102 948.307 173.988L949.286 175.732C963.654 167.672 974.964 156.537 983.201 142.342L981.471 141.338ZM948.307 173.988C934.25 181.874 918.819 185.82 901.996 185.82V187.82C919.147 187.82 934.916 183.793 949.286 175.732L948.307 173.988ZM901.996 155.32C913.069 155.32 922.868 152.858 931.36 147.904L930.353 146.176C922.205 150.929 912.763 153.32 901.996 153.32V155.32ZM931.374 147.896C939.863 142.767 946.488 135.516 951.247 126.174L949.465 125.266C944.865 134.297 938.49 141.26 930.339 146.184L931.374 147.896ZM951.247 126.174C956.011 116.824 958.376 106.003 958.376 93.74H956.376C956.376 105.743 954.062 116.243 949.465 125.266L951.247 126.174ZM958.376 93.74C958.376 81.4773 956.011 70.7401 951.244 61.5592L949.469 62.4808C954.062 71.3266 956.376 81.736 956.376 93.74H958.376ZM951.247 61.5661C946.487 52.2211 939.858 45.0531 931.36 40.0962L930.353 41.8238C938.495 46.5736 944.866 53.4456 949.465 62.4739L951.247 61.5661ZM931.36 40.0962C922.868 35.1423 913.069 32.68 901.996 32.68V34.68C912.763 34.68 922.205 37.0711 930.353 41.8238L931.36 40.0962ZM901.996 32.68C890.923 32.68 881.042 35.1424 872.38 40.0918L873.373 41.8282C881.698 37.071 891.23 34.68 901.996 34.68V32.68ZM872.373 40.0962C863.875 45.0531 857.246 52.2211 852.485 61.5661L854.267 62.4739C858.867 53.4456 865.238 46.5736 873.38 41.8238L872.373 40.0962ZM852.489 61.5592C847.722 70.7401 845.356 81.4773 845.356 93.74H847.356C847.356 81.736 849.671 71.3266 854.264 62.4808L852.489 61.5592ZM845.356 93.74C845.356 106.003 847.722 116.824 852.485 126.174L854.267 125.266C849.671 116.243 847.356 105.743 847.356 93.74H845.356ZM852.485 126.174C857.245 135.516 863.87 142.767 872.359 147.896L873.394 146.184C865.243 141.26 858.868 134.297 854.267 125.266L852.485 126.174ZM872.38 147.908C881.042 152.858 890.923 155.32 901.996 155.32V153.32C891.23 153.32 881.698 150.929 873.373 146.172L872.38 147.908ZM1058.3 156.14H1057.3V157.14H1058.3V156.14ZM1118.1 156.14H1119.1V155.14H1118.1V156.14ZM1118.1 185V186H1119.1V185H1118.1ZM1021.9 185H1020.9V186H1021.9V185ZM1021.9 3.52V2.52H1020.9V3.52H1021.9ZM1058.3 3.52H1059.3V2.52H1058.3V3.52ZM1058.3 157.14H1118.1V155.14H1058.3V157.14ZM1117.1 156.14V185H1119.1V156.14H1117.1ZM1118.1 184H1021.9V186H1118.1V184ZM1022.9 185V3.52H1020.9V185H1022.9ZM1021.9 4.52H1058.3V2.52H1021.9V4.52ZM1057.3 3.52V156.14H1059.3V3.52H1057.3ZM1177.63 3.52H1178.63V2.52H1177.63V3.52ZM1177.63 185V186H1178.63V185H1177.63ZM1141.23 185H1140.23V186H1141.23V185ZM1141.23 3.52V2.52H1140.23V3.52H1141.23ZM1176.63 3.52V185H1178.63V3.52H1176.63ZM1177.63 184H1141.23V186H1177.63V184ZM1142.23 185V3.52H1140.23V185H1142.23ZM1141.23 4.52H1177.63V2.52H1141.23V4.52ZM1251.04 174.86L1251.53 173.988L1251.04 174.86ZM1217.24 141.84L1216.37 142.345L1216.38 142.35L1217.24 141.84ZM1217.24 46.16L1218.1 46.6698L1218.1 46.6652L1217.24 46.16ZM1251.04 12.88L1250.55 12.0078L1251.04 12.88ZM1344.64 12.88L1344.14 13.7496L1344.15 13.7521L1344.64 12.88ZM1378.18 46.16L1377.31 46.6573L1377.31 46.6636L1377.32 46.6698L1378.18 46.16ZM1378.18 141.84L1377.31 141.335L1377.31 141.338L1378.18 141.84ZM1344.64 174.86L1344.15 173.988L1344.64 174.86ZM1326.7 147.04L1327.2 147.904L1327.21 147.9L1327.21 147.896L1326.7 147.04ZM1346.2 125.72L1347.09 126.174L1346.2 125.72ZM1346.2 62.02L1345.31 62.4739L1345.31 62.4808L1346.2 62.02ZM1326.7 40.96L1326.19 41.8238L1326.7 40.96ZM1268.72 40.96L1268.22 40.0917L1268.21 40.0962L1268.72 40.96ZM1249.22 62.02L1250.1 62.4808L1250.11 62.4739L1249.22 62.02ZM1249.22 125.72L1250.11 125.266L1249.22 125.72ZM1268.72 147.04L1268.2 147.896L1268.21 147.902L1268.22 147.908L1268.72 147.04ZM1297.84 185.82C1281.01 185.82 1265.58 181.874 1251.53 173.988L1250.55 175.732C1264.92 183.793 1280.69 187.82 1297.84 187.82V185.82ZM1251.53 173.988C1237.47 166.101 1226.33 155.219 1218.1 141.33L1216.38 142.35C1224.79 156.541 1236.18 167.673 1250.55 175.732L1251.53 173.988ZM1218.1 141.335C1209.88 127.288 1205.76 111.431 1205.76 93.74H1203.76C1203.76 111.755 1207.96 127.966 1216.37 142.345L1218.1 141.335ZM1205.76 93.74C1205.76 76.2239 1209.88 60.5427 1218.1 46.6698L1216.38 45.6502C1207.96 59.8573 1203.76 75.8961 1203.76 93.74H1205.76ZM1218.1 46.6652C1226.33 32.6035 1237.47 21.6376 1251.53 13.7521L1250.55 12.0078C1236.18 20.0691 1224.78 31.2898 1216.37 45.6548L1218.1 46.6652ZM1251.53 13.7521C1265.58 5.86625 1281.01 1.92 1297.84 1.92V-0.0800009C1280.69 -0.0800009 1264.92 3.94707 1250.55 12.0078L1251.53 13.7521ZM1297.84 1.92C1314.83 1.92 1330.26 5.86711 1344.14 13.7495L1345.13 12.0104C1330.93 3.94621 1315.16 -0.0800009 1297.84 -0.0800009V1.92ZM1344.15 13.7521C1358.2 21.6365 1369.25 32.5999 1377.31 46.6573L1379.04 45.6627C1370.81 31.2934 1359.5 20.0701 1345.13 12.0078L1344.15 13.7521ZM1377.32 46.6698C1385.54 60.5427 1389.66 76.2239 1389.66 93.74H1391.66C1391.66 75.8961 1387.46 59.8573 1379.04 45.6502L1377.32 46.6698ZM1389.66 93.74C1389.66 111.431 1385.54 127.288 1377.31 141.335L1379.04 142.345C1387.46 127.966 1391.66 111.755 1391.66 93.74H1389.66ZM1377.31 141.338C1369.25 155.223 1358.2 166.102 1344.15 173.988L1345.13 175.732C1359.49 167.672 1370.8 156.537 1379.04 142.342L1377.31 141.338ZM1344.15 173.988C1330.09 181.874 1314.66 185.82 1297.84 185.82V187.82C1314.99 187.82 1330.76 183.793 1345.13 175.732L1344.15 173.988ZM1297.84 155.32C1308.91 155.32 1318.71 152.858 1327.2 147.904L1326.19 146.176C1318.04 150.929 1308.6 153.32 1297.84 153.32V155.32ZM1327.21 147.896C1335.7 142.767 1342.33 135.516 1347.09 126.174L1345.31 125.266C1340.7 134.297 1334.33 141.26 1326.18 146.184L1327.21 147.896ZM1347.09 126.174C1351.85 116.824 1354.22 106.003 1354.22 93.74H1352.22C1352.22 105.743 1349.9 116.243 1345.31 125.266L1347.09 126.174ZM1354.22 93.74C1354.22 81.4773 1351.85 70.7401 1347.08 61.5592L1345.31 62.4808C1349.9 71.3266 1352.22 81.736 1352.22 93.74H1354.22ZM1347.09 61.5661C1342.33 52.2211 1335.7 45.0531 1327.2 40.0962L1326.19 41.8238C1334.33 46.5736 1340.71 53.4456 1345.31 62.4739L1347.09 61.5661ZM1327.2 40.0962C1318.71 35.1423 1308.91 32.68 1297.84 32.68V34.68C1308.6 34.68 1318.04 37.0711 1326.19 41.8238L1327.2 40.0962ZM1297.84 32.68C1286.76 32.68 1276.88 35.1424 1268.22 40.0918L1269.21 41.8282C1277.54 37.071 1287.07 34.68 1297.84 34.68V32.68ZM1268.21 40.0962C1259.71 45.0531 1253.09 52.2211 1248.33 61.5661L1250.11 62.4739C1254.71 53.4456 1261.08 46.5736 1269.22 41.8238L1268.21 40.0962ZM1248.33 61.5592C1243.56 70.7401 1241.2 81.4773 1241.2 93.74H1243.2C1243.2 81.736 1245.51 71.3266 1250.1 62.4808L1248.33 61.5592ZM1241.2 93.74C1241.2 106.003 1243.56 116.824 1248.33 126.174L1250.11 125.266C1245.51 116.243 1243.2 105.743 1243.2 93.74H1241.2ZM1248.33 126.174C1253.08 135.516 1259.71 142.767 1268.2 147.896L1269.23 146.184C1261.08 141.26 1254.71 134.297 1250.11 125.266L1248.33 126.174ZM1268.22 147.908C1276.88 152.858 1286.76 155.32 1297.84 155.32V153.32C1287.07 153.32 1277.54 150.929 1269.21 146.172L1268.22 147.908Z" fill="white" fill-opacity="0.5"/>
</svg>
