<svg width="75" height="453" viewBox="0 0 75 453" fill="none" xmlns="http://www.w3.org/2000/svg">
<path d="M1.5 0L1.83677 1.03647H2.92658L2.04491 1.67705L2.38168 2.71353L1.5 2.07295L0.618322 2.71353L0.955093 1.67705L0.0734153 1.03647H1.16323L1.5 0Z" fill="#C4C4C4"/>
<path d="M1.5 18L1.83677 19.0365H2.92658L2.04491 19.6771L2.38168 20.7135L1.5 20.0729L0.618322 20.7135L0.955093 19.6771L0.0734153 19.0365H1.16323L1.5 18Z" fill="#C4C4C4"/>
<path d="M1.5 36L1.83677 37.0365H2.92658L2.04491 37.6771L2.38168 38.7135L1.5 38.0729L0.618322 38.7135L0.955093 37.6771L0.0734153 37.0365H1.16323L1.5 36Z" fill="#C4C4C4"/>
<path d="M1.5 54L1.83677 55.0365H2.92658L2.04491 55.6771L2.38168 56.7135L1.5 56.0729L0.618322 56.7135L0.955093 55.6771L0.0734153 55.0365H1.16323L1.5 54Z" fill="#C4C4C4"/>
<path d="M1.5 72L1.83677 73.0365H2.92658L2.04491 73.6771L2.38168 74.7135L1.5 74.0729L0.618322 74.7135L0.955093 73.6771L0.0734153 73.0365H1.16323L1.5 72Z" fill="#C4C4C4"/>
<path d="M1.5 90L1.83677 91.0365H2.92658L2.04491 91.6771L2.38168 92.7135L1.5 92.0729L0.618322 92.7135L0.955093 91.6771L0.0734153 91.0365H1.16323L1.5 90Z" fill="#C4C4C4"/>
<path d="M1.5 108L1.83677 109.036H2.92658L2.04491 109.677L2.38168 110.714L1.5 110.073L0.618322 110.714L0.955093 109.677L0.0734153 109.036H1.16323L1.5 108Z" fill="#C4C4C4"/>
<path d="M1.5 126L1.83677 127.036H2.92658L2.04491 127.677L2.38168 128.714L1.5 128.073L0.618322 128.714L0.955093 127.677L0.0734153 127.036H1.16323L1.5 126Z" fill="#C4C4C4"/>
<path d="M1.5 144L1.83677 145.036H2.92658L2.04491 145.677L2.38168 146.714L1.5 146.073L0.618322 146.714L0.955093 145.677L0.0734153 145.036H1.16323L1.5 144Z" fill="#C4C4C4"/>
<path d="M1.5 162L1.83677 163.036H2.92658L2.04491 163.677L2.38168 164.714L1.5 164.073L0.618322 164.714L0.955093 163.677L0.0734153 163.036H1.16323L1.5 162Z" fill="#C4C4C4"/>
<path d="M1.5 180L1.83677 181.036H2.92658L2.04491 181.677L2.38168 182.714L1.5 182.073L0.618322 182.714L0.955093 181.677L0.0734153 181.036H1.16323L1.5 180Z" fill="#C4C4C4"/>
<path d="M1.5 198L1.83677 199.036H2.92658L2.04491 199.677L2.38168 200.714L1.5 200.073L0.618322 200.714L0.955093 199.677L0.0734153 199.036H1.16323L1.5 198Z" fill="#C4C4C4"/>
<path d="M1.5 216L1.83677 217.036H2.92658L2.04491 217.677L2.38168 218.714L1.5 218.073L0.618322 218.714L0.955093 217.677L0.0734153 217.036H1.16323L1.5 216Z" fill="#C4C4C4"/>
<path d="M1.5 234L1.83677 235.036H2.92658L2.04491 235.677L2.38168 236.714L1.5 236.073L0.618322 236.714L0.955093 235.677L0.0734153 235.036H1.16323L1.5 234Z" fill="#C4C4C4"/>
<path d="M1.5 252L1.83677 253.036H2.92658L2.04491 253.677L2.38168 254.714L1.5 254.073L0.618322 254.714L0.955093 253.677L0.0734153 253.036H1.16323L1.5 252Z" fill="#C4C4C4"/>
<path d="M1.5 270L1.83677 271.036H2.92658L2.04491 271.677L2.38168 272.714L1.5 272.073L0.618322 272.714L0.955093 271.677L0.0734153 271.036H1.16323L1.5 270Z" fill="#C4C4C4"/>
<path d="M1.5 288L1.83677 289.036H2.92658L2.04491 289.677L2.38168 290.714L1.5 290.073L0.618322 290.714L0.955093 289.677L0.0734153 289.036H1.16323L1.5 288Z" fill="#C4C4C4"/>
<path d="M1.5 306L1.83677 307.036H2.92658L2.04491 307.677L2.38168 308.714L1.5 308.073L0.618322 308.714L0.955093 307.677L0.0734153 307.036H1.16323L1.5 306Z" fill="#C4C4C4"/>
<path d="M1.5 324L1.83677 325.036H2.92658L2.04491 325.677L2.38168 326.714L1.5 326.073L0.618322 326.714L0.955093 325.677L0.0734153 325.036H1.16323L1.5 324Z" fill="#C4C4C4"/>
<path d="M1.5 342L1.83677 343.036H2.92658L2.04491 343.677L2.38168 344.714L1.5 344.073L0.618322 344.714L0.955093 343.677L0.0734153 343.036H1.16323L1.5 342Z" fill="#C4C4C4"/>
<path d="M1.5 360L1.83677 361.036H2.92658L2.04491 361.677L2.38168 362.714L1.5 362.073L0.618322 362.714L0.955093 361.677L0.0734153 361.036H1.16323L1.5 360Z" fill="#C4C4C4"/>
<path d="M1.5 378L1.83677 379.036H2.92658L2.04491 379.677L2.38168 380.714L1.5 380.073L0.618322 380.714L0.955093 379.677L0.0734153 379.036H1.16323L1.5 378Z" fill="#C4C4C4"/>
<path d="M1.5 396L1.83677 397.036H2.92658L2.04491 397.677L2.38168 398.714L1.5 398.073L0.618322 398.714L0.955093 397.677L0.0734153 397.036H1.16323L1.5 396Z" fill="#C4C4C4"/>
<path d="M1.5 414L1.83677 415.036H2.92658L2.04491 415.677L2.38168 416.714L1.5 416.073L0.618322 416.714L0.955093 415.677L0.0734153 415.036H1.16323L1.5 414Z" fill="#C4C4C4"/>
<path d="M1.5 432L1.83677 433.036H2.92658L2.04491 433.677L2.38168 434.714L1.5 434.073L0.618322 434.714L0.955093 433.677L0.0734153 433.036H1.16323L1.5 432Z" fill="#C4C4C4"/>
<path d="M1.5 450L1.83677 451.036H2.92658L2.04491 451.677L2.38168 452.714L1.5 452.073L0.618322 452.714L0.955093 451.677L0.0734153 451.036H1.16323L1.5 450Z" fill="#C4C4C4"/>
<path d="M19.5 0L19.8368 1.03647H20.9266L20.0449 1.67705L20.3817 2.71353L19.5 2.07295L18.6183 2.71353L18.9551 1.67705L18.0734 1.03647H19.1632L19.5 0Z" fill="#C4C4C4"/>
<path d="M19.5 18L19.8368 19.0365H20.9266L20.0449 19.6771L20.3817 20.7135L19.5 20.0729L18.6183 20.7135L18.9551 19.6771L18.0734 19.0365H19.1632L19.5 18Z" fill="#C4C4C4"/>
<path d="M19.5 36L19.8368 37.0365H20.9266L20.0449 37.6771L20.3817 38.7135L19.5 38.0729L18.6183 38.7135L18.9551 37.6771L18.0734 37.0365H19.1632L19.5 36Z" fill="#C4C4C4"/>
<path d="M19.5 54L19.8368 55.0365H20.9266L20.0449 55.6771L20.3817 56.7135L19.5 56.0729L18.6183 56.7135L18.9551 55.6771L18.0734 55.0365H19.1632L19.5 54Z" fill="#C4C4C4"/>
<path d="M19.5 72L19.8368 73.0365H20.9266L20.0449 73.6771L20.3817 74.7135L19.5 74.0729L18.6183 74.7135L18.9551 73.6771L18.0734 73.0365H19.1632L19.5 72Z" fill="#C4C4C4"/>
<path d="M19.5 90L19.8368 91.0365H20.9266L20.0449 91.6771L20.3817 92.7135L19.5 92.0729L18.6183 92.7135L18.9551 91.6771L18.0734 91.0365H19.1632L19.5 90Z" fill="#C4C4C4"/>
<path d="M19.5 108L19.8368 109.036H20.9266L20.0449 109.677L20.3817 110.714L19.5 110.073L18.6183 110.714L18.9551 109.677L18.0734 109.036H19.1632L19.5 108Z" fill="#C4C4C4"/>
<path d="M19.5 126L19.8368 127.036H20.9266L20.0449 127.677L20.3817 128.714L19.5 128.073L18.6183 128.714L18.9551 127.677L18.0734 127.036H19.1632L19.5 126Z" fill="#C4C4C4"/>
<path d="M19.5 144L19.8368 145.036H20.9266L20.0449 145.677L20.3817 146.714L19.5 146.073L18.6183 146.714L18.9551 145.677L18.0734 145.036H19.1632L19.5 144Z" fill="#C4C4C4"/>
<path d="M19.5 162L19.8368 163.036H20.9266L20.0449 163.677L20.3817 164.714L19.5 164.073L18.6183 164.714L18.9551 163.677L18.0734 163.036H19.1632L19.5 162Z" fill="#C4C4C4"/>
<path d="M19.5 180L19.8368 181.036H20.9266L20.0449 181.677L20.3817 182.714L19.5 182.073L18.6183 182.714L18.9551 181.677L18.0734 181.036H19.1632L19.5 180Z" fill="#C4C4C4"/>
<path d="M19.5 198L19.8368 199.036H20.9266L20.0449 199.677L20.3817 200.714L19.5 200.073L18.6183 200.714L18.9551 199.677L18.0734 199.036H19.1632L19.5 198Z" fill="#C4C4C4"/>
<path d="M19.5 216L19.8368 217.036H20.9266L20.0449 217.677L20.3817 218.714L19.5 218.073L18.6183 218.714L18.9551 217.677L18.0734 217.036H19.1632L19.5 216Z" fill="#C4C4C4"/>
<path d="M19.5 234L19.8368 235.036H20.9266L20.0449 235.677L20.3817 236.714L19.5 236.073L18.6183 236.714L18.9551 235.677L18.0734 235.036H19.1632L19.5 234Z" fill="#C4C4C4"/>
<path d="M19.5 252L19.8368 253.036H20.9266L20.0449 253.677L20.3817 254.714L19.5 254.073L18.6183 254.714L18.9551 253.677L18.0734 253.036H19.1632L19.5 252Z" fill="#C4C4C4"/>
<path d="M19.5 270L19.8368 271.036H20.9266L20.0449 271.677L20.3817 272.714L19.5 272.073L18.6183 272.714L18.9551 271.677L18.0734 271.036H19.1632L19.5 270Z" fill="#C4C4C4"/>
<path d="M19.5 288L19.8368 289.036H20.9266L20.0449 289.677L20.3817 290.714L19.5 290.073L18.6183 290.714L18.9551 289.677L18.0734 289.036H19.1632L19.5 288Z" fill="#C4C4C4"/>
<path d="M19.5 306L19.8368 307.036H20.9266L20.0449 307.677L20.3817 308.714L19.5 308.073L18.6183 308.714L18.9551 307.677L18.0734 307.036H19.1632L19.5 306Z" fill="#C4C4C4"/>
<path d="M19.5 324L19.8368 325.036H20.9266L20.0449 325.677L20.3817 326.714L19.5 326.073L18.6183 326.714L18.9551 325.677L18.0734 325.036H19.1632L19.5 324Z" fill="#C4C4C4"/>
<path d="M19.5 342L19.8368 343.036H20.9266L20.0449 343.677L20.3817 344.714L19.5 344.073L18.6183 344.714L18.9551 343.677L18.0734 343.036H19.1632L19.5 342Z" fill="#C4C4C4"/>
<path d="M19.5 360L19.8368 361.036H20.9266L20.0449 361.677L20.3817 362.714L19.5 362.073L18.6183 362.714L18.9551 361.677L18.0734 361.036H19.1632L19.5 360Z" fill="#C4C4C4"/>
<path d="M19.5 378L19.8368 379.036H20.9266L20.0449 379.677L20.3817 380.714L19.5 380.073L18.6183 380.714L18.9551 379.677L18.0734 379.036H19.1632L19.5 378Z" fill="#C4C4C4"/>
<path d="M19.5 396L19.8368 397.036H20.9266L20.0449 397.677L20.3817 398.714L19.5 398.073L18.6183 398.714L18.9551 397.677L18.0734 397.036H19.1632L19.5 396Z" fill="#C4C4C4"/>
<path d="M19.5 414L19.8368 415.036H20.9266L20.0449 415.677L20.3817 416.714L19.5 416.073L18.6183 416.714L18.9551 415.677L18.0734 415.036H19.1632L19.5 414Z" fill="#C4C4C4"/>
<path d="M19.5 432L19.8368 433.036H20.9266L20.0449 433.677L20.3817 434.714L19.5 434.073L18.6183 434.714L18.9551 433.677L18.0734 433.036H19.1632L19.5 432Z" fill="#C4C4C4"/>
<path d="M19.5 450L19.8368 451.036H20.9266L20.0449 451.677L20.3817 452.714L19.5 452.073L18.6183 452.714L18.9551 451.677L18.0734 451.036H19.1632L19.5 450Z" fill="#C4C4C4"/>
<path d="M37.5 0L37.8368 1.03647H38.9266L38.0449 1.67705L38.3817 2.71353L37.5 2.07295L36.6183 2.71353L36.9551 1.67705L36.0734 1.03647H37.1632L37.5 0Z" fill="#C4C4C4"/>
<path d="M37.5 18L37.8368 19.0365H38.9266L38.0449 19.6771L38.3817 20.7135L37.5 20.0729L36.6183 20.7135L36.9551 19.6771L36.0734 19.0365H37.1632L37.5 18Z" fill="#C4C4C4"/>
<path d="M37.5 36L37.8368 37.0365H38.9266L38.0449 37.6771L38.3817 38.7135L37.5 38.0729L36.6183 38.7135L36.9551 37.6771L36.0734 37.0365H37.1632L37.5 36Z" fill="#C4C4C4"/>
<path d="M37.5 54L37.8368 55.0365H38.9266L38.0449 55.6771L38.3817 56.7135L37.5 56.0729L36.6183 56.7135L36.9551 55.6771L36.0734 55.0365H37.1632L37.5 54Z" fill="#C4C4C4"/>
<path d="M37.5 72L37.8368 73.0365H38.9266L38.0449 73.6771L38.3817 74.7135L37.5 74.0729L36.6183 74.7135L36.9551 73.6771L36.0734 73.0365H37.1632L37.5 72Z" fill="#C4C4C4"/>
<path d="M37.5 90L37.8368 91.0365H38.9266L38.0449 91.6771L38.3817 92.7135L37.5 92.0729L36.6183 92.7135L36.9551 91.6771L36.0734 91.0365H37.1632L37.5 90Z" fill="#C4C4C4"/>
<path d="M37.5 108L37.8368 109.036H38.9266L38.0449 109.677L38.3817 110.714L37.5 110.073L36.6183 110.714L36.9551 109.677L36.0734 109.036H37.1632L37.5 108Z" fill="#C4C4C4"/>
<path d="M37.5 126L37.8368 127.036H38.9266L38.0449 127.677L38.3817 128.714L37.5 128.073L36.6183 128.714L36.9551 127.677L36.0734 127.036H37.1632L37.5 126Z" fill="#C4C4C4"/>
<path d="M37.5 144L37.8368 145.036H38.9266L38.0449 145.677L38.3817 146.714L37.5 146.073L36.6183 146.714L36.9551 145.677L36.0734 145.036H37.1632L37.5 144Z" fill="#C4C4C4"/>
<path d="M37.5 162L37.8368 163.036H38.9266L38.0449 163.677L38.3817 164.714L37.5 164.073L36.6183 164.714L36.9551 163.677L36.0734 163.036H37.1632L37.5 162Z" fill="#C4C4C4"/>
<path d="M37.5 180L37.8368 181.036H38.9266L38.0449 181.677L38.3817 182.714L37.5 182.073L36.6183 182.714L36.9551 181.677L36.0734 181.036H37.1632L37.5 180Z" fill="#C4C4C4"/>
<path d="M37.5 198L37.8368 199.036H38.9266L38.0449 199.677L38.3817 200.714L37.5 200.073L36.6183 200.714L36.9551 199.677L36.0734 199.036H37.1632L37.5 198Z" fill="#C4C4C4"/>
<path d="M37.5 216L37.8368 217.036H38.9266L38.0449 217.677L38.3817 218.714L37.5 218.073L36.6183 218.714L36.9551 217.677L36.0734 217.036H37.1632L37.5 216Z" fill="#C4C4C4"/>
<path d="M37.5 234L37.8368 235.036H38.9266L38.0449 235.677L38.3817 236.714L37.5 236.073L36.6183 236.714L36.9551 235.677L36.0734 235.036H37.1632L37.5 234Z" fill="#C4C4C4"/>
<path d="M37.5 252L37.8368 253.036H38.9266L38.0449 253.677L38.3817 254.714L37.5 254.073L36.6183 254.714L36.9551 253.677L36.0734 253.036H37.1632L37.5 252Z" fill="#C4C4C4"/>
<path d="M37.5 270L37.8368 271.036H38.9266L38.0449 271.677L38.3817 272.714L37.5 272.073L36.6183 272.714L36.9551 271.677L36.0734 271.036H37.1632L37.5 270Z" fill="#C4C4C4"/>
<path d="M37.5 288L37.8368 289.036H38.9266L38.0449 289.677L38.3817 290.714L37.5 290.073L36.6183 290.714L36.9551 289.677L36.0734 289.036H37.1632L37.5 288Z" fill="#C4C4C4"/>
<path d="M37.5 306L37.8368 307.036H38.9266L38.0449 307.677L38.3817 308.714L37.5 308.073L36.6183 308.714L36.9551 307.677L36.0734 307.036H37.1632L37.5 306Z" fill="#C4C4C4"/>
<path d="M37.5 324L37.8368 325.036H38.9266L38.0449 325.677L38.3817 326.714L37.5 326.073L36.6183 326.714L36.9551 325.677L36.0734 325.036H37.1632L37.5 324Z" fill="#C4C4C4"/>
<path d="M37.5 342L37.8368 343.036H38.9266L38.0449 343.677L38.3817 344.714L37.5 344.073L36.6183 344.714L36.9551 343.677L36.0734 343.036H37.1632L37.5 342Z" fill="#C4C4C4"/>
<path d="M37.5 360L37.8368 361.036H38.9266L38.0449 361.677L38.3817 362.714L37.5 362.073L36.6183 362.714L36.9551 361.677L36.0734 361.036H37.1632L37.5 360Z" fill="#C4C4C4"/>
<path d="M37.5 378L37.8368 379.036H38.9266L38.0449 379.677L38.3817 380.714L37.5 380.073L36.6183 380.714L36.9551 379.677L36.0734 379.036H37.1632L37.5 378Z" fill="#C4C4C4"/>
<path d="M37.5 396L37.8368 397.036H38.9266L38.0449 397.677L38.3817 398.714L37.5 398.073L36.6183 398.714L36.9551 397.677L36.0734 397.036H37.1632L37.5 396Z" fill="#C4C4C4"/>
<path d="M37.5 414L37.8368 415.036H38.9266L38.0449 415.677L38.3817 416.714L37.5 416.073L36.6183 416.714L36.9551 415.677L36.0734 415.036H37.1632L37.5 414Z" fill="#C4C4C4"/>
<path d="M37.5 432L37.8368 433.036H38.9266L38.0449 433.677L38.3817 434.714L37.5 434.073L36.6183 434.714L36.9551 433.677L36.0734 433.036H37.1632L37.5 432Z" fill="#C4C4C4"/>
<path d="M37.5 450L37.8368 451.036H38.9266L38.0449 451.677L38.3817 452.714L37.5 452.073L36.6183 452.714L36.9551 451.677L36.0734 451.036H37.1632L37.5 450Z" fill="#C4C4C4"/>
<path d="M55.5 0L55.8368 1.03647H56.9266L56.0449 1.67705L56.3817 2.71353L55.5 2.07295L54.6183 2.71353L54.9551 1.67705L54.0734 1.03647H55.1632L55.5 0Z" fill="#C4C4C4"/>
<path d="M55.5 18L55.8368 19.0365H56.9266L56.0449 19.6771L56.3817 20.7135L55.5 20.0729L54.6183 20.7135L54.9551 19.6771L54.0734 19.0365H55.1632L55.5 18Z" fill="#C4C4C4"/>
<path d="M55.5 36L55.8368 37.0365H56.9266L56.0449 37.6771L56.3817 38.7135L55.5 38.0729L54.6183 38.7135L54.9551 37.6771L54.0734 37.0365H55.1632L55.5 36Z" fill="#C4C4C4"/>
<path d="M55.5 54L55.8368 55.0365H56.9266L56.0449 55.6771L56.3817 56.7135L55.5 56.0729L54.6183 56.7135L54.9551 55.6771L54.0734 55.0365H55.1632L55.5 54Z" fill="#C4C4C4"/>
<path d="M55.5 72L55.8368 73.0365H56.9266L56.0449 73.6771L56.3817 74.7135L55.5 74.0729L54.6183 74.7135L54.9551 73.6771L54.0734 73.0365H55.1632L55.5 72Z" fill="#C4C4C4"/>
<path d="M55.5 90L55.8368 91.0365H56.9266L56.0449 91.6771L56.3817 92.7135L55.5 92.0729L54.6183 92.7135L54.9551 91.6771L54.0734 91.0365H55.1632L55.5 90Z" fill="#C4C4C4"/>
<path d="M55.5 108L55.8368 109.036H56.9266L56.0449 109.677L56.3817 110.714L55.5 110.073L54.6183 110.714L54.9551 109.677L54.0734 109.036H55.1632L55.5 108Z" fill="#C4C4C4"/>
<path d="M55.5 126L55.8368 127.036H56.9266L56.0449 127.677L56.3817 128.714L55.5 128.073L54.6183 128.714L54.9551 127.677L54.0734 127.036H55.1632L55.5 126Z" fill="#C4C4C4"/>
<path d="M55.5 144L55.8368 145.036H56.9266L56.0449 145.677L56.3817 146.714L55.5 146.073L54.6183 146.714L54.9551 145.677L54.0734 145.036H55.1632L55.5 144Z" fill="#C4C4C4"/>
<path d="M55.5 162L55.8368 163.036H56.9266L56.0449 163.677L56.3817 164.714L55.5 164.073L54.6183 164.714L54.9551 163.677L54.0734 163.036H55.1632L55.5 162Z" fill="#C4C4C4"/>
<path d="M55.5 180L55.8368 181.036H56.9266L56.0449 181.677L56.3817 182.714L55.5 182.073L54.6183 182.714L54.9551 181.677L54.0734 181.036H55.1632L55.5 180Z" fill="#C4C4C4"/>
<path d="M55.5 198L55.8368 199.036H56.9266L56.0449 199.677L56.3817 200.714L55.5 200.073L54.6183 200.714L54.9551 199.677L54.0734 199.036H55.1632L55.5 198Z" fill="#C4C4C4"/>
<path d="M55.5 216L55.8368 217.036H56.9266L56.0449 217.677L56.3817 218.714L55.5 218.073L54.6183 218.714L54.9551 217.677L54.0734 217.036H55.1632L55.5 216Z" fill="#C4C4C4"/>
<path d="M55.5 234L55.8368 235.036H56.9266L56.0449 235.677L56.3817 236.714L55.5 236.073L54.6183 236.714L54.9551 235.677L54.0734 235.036H55.1632L55.5 234Z" fill="#C4C4C4"/>
<path d="M55.5 252L55.8368 253.036H56.9266L56.0449 253.677L56.3817 254.714L55.5 254.073L54.6183 254.714L54.9551 253.677L54.0734 253.036H55.1632L55.5 252Z" fill="#C4C4C4"/>
<path d="M55.5 270L55.8368 271.036H56.9266L56.0449 271.677L56.3817 272.714L55.5 272.073L54.6183 272.714L54.9551 271.677L54.0734 271.036H55.1632L55.5 270Z" fill="#C4C4C4"/>
<path d="M55.5 288L55.8368 289.036H56.9266L56.0449 289.677L56.3817 290.714L55.5 290.073L54.6183 290.714L54.9551 289.677L54.0734 289.036H55.1632L55.5 288Z" fill="#C4C4C4"/>
<path d="M55.5 306L55.8368 307.036H56.9266L56.0449 307.677L56.3817 308.714L55.5 308.073L54.6183 308.714L54.9551 307.677L54.0734 307.036H55.1632L55.5 306Z" fill="#C4C4C4"/>
<path d="M55.5 324L55.8368 325.036H56.9266L56.0449 325.677L56.3817 326.714L55.5 326.073L54.6183 326.714L54.9551 325.677L54.0734 325.036H55.1632L55.5 324Z" fill="#C4C4C4"/>
<path d="M55.5 342L55.8368 343.036H56.9266L56.0449 343.677L56.3817 344.714L55.5 344.073L54.6183 344.714L54.9551 343.677L54.0734 343.036H55.1632L55.5 342Z" fill="#C4C4C4"/>
<path d="M55.5 360L55.8368 361.036H56.9266L56.0449 361.677L56.3817 362.714L55.5 362.073L54.6183 362.714L54.9551 361.677L54.0734 361.036H55.1632L55.5 360Z" fill="#C4C4C4"/>
<path d="M55.5 378L55.8368 379.036H56.9266L56.0449 379.677L56.3817 380.714L55.5 380.073L54.6183 380.714L54.9551 379.677L54.0734 379.036H55.1632L55.5 378Z" fill="#C4C4C4"/>
<path d="M55.5 396L55.8368 397.036H56.9266L56.0449 397.677L56.3817 398.714L55.5 398.073L54.6183 398.714L54.9551 397.677L54.0734 397.036H55.1632L55.5 396Z" fill="#C4C4C4"/>
<path d="M55.5 414L55.8368 415.036H56.9266L56.0449 415.677L56.3817 416.714L55.5 416.073L54.6183 416.714L54.9551 415.677L54.0734 415.036H55.1632L55.5 414Z" fill="#C4C4C4"/>
<path d="M55.5 432L55.8368 433.036H56.9266L56.0449 433.677L56.3817 434.714L55.5 434.073L54.6183 434.714L54.9551 433.677L54.0734 433.036H55.1632L55.5 432Z" fill="#C4C4C4"/>
<path d="M55.5 450L55.8368 451.036H56.9266L56.0449 451.677L56.3817 452.714L55.5 452.073L54.6183 452.714L54.9551 451.677L54.0734 451.036H55.1632L55.5 450Z" fill="#C4C4C4"/>
<path d="M73.5 0L73.8368 1.03647H74.9266L74.0449 1.67705L74.3817 2.71353L73.5 2.07295L72.6183 2.71353L72.9551 1.67705L72.0734 1.03647H73.1632L73.5 0Z" fill="#C4C4C4"/>
<path d="M73.5 18L73.8368 19.0365H74.9266L74.0449 19.6771L74.3817 20.7135L73.5 20.0729L72.6183 20.7135L72.9551 19.6771L72.0734 19.0365H73.1632L73.5 18Z" fill="#C4C4C4"/>
<path d="M73.5 36L73.8368 37.0365H74.9266L74.0449 37.6771L74.3817 38.7135L73.5 38.0729L72.6183 38.7135L72.9551 37.6771L72.0734 37.0365H73.1632L73.5 36Z" fill="#C4C4C4"/>
<path d="M73.5 54L73.8368 55.0365H74.9266L74.0449 55.6771L74.3817 56.7135L73.5 56.0729L72.6183 56.7135L72.9551 55.6771L72.0734 55.0365H73.1632L73.5 54Z" fill="#C4C4C4"/>
<path d="M73.5 72L73.8368 73.0365H74.9266L74.0449 73.6771L74.3817 74.7135L73.5 74.0729L72.6183 74.7135L72.9551 73.6771L72.0734 73.0365H73.1632L73.5 72Z" fill="#C4C4C4"/>
<path d="M73.5 90L73.8368 91.0365H74.9266L74.0449 91.6771L74.3817 92.7135L73.5 92.0729L72.6183 92.7135L72.9551 91.6771L72.0734 91.0365H73.1632L73.5 90Z" fill="#C4C4C4"/>
<path d="M73.5 108L73.8368 109.036H74.9266L74.0449 109.677L74.3817 110.714L73.5 110.073L72.6183 110.714L72.9551 109.677L72.0734 109.036H73.1632L73.5 108Z" fill="#C4C4C4"/>
<path d="M73.5 126L73.8368 127.036H74.9266L74.0449 127.677L74.3817 128.714L73.5 128.073L72.6183 128.714L72.9551 127.677L72.0734 127.036H73.1632L73.5 126Z" fill="#C4C4C4"/>
<path d="M73.5 144L73.8368 145.036H74.9266L74.0449 145.677L74.3817 146.714L73.5 146.073L72.6183 146.714L72.9551 145.677L72.0734 145.036H73.1632L73.5 144Z" fill="#C4C4C4"/>
<path d="M73.5 162L73.8368 163.036H74.9266L74.0449 163.677L74.3817 164.714L73.5 164.073L72.6183 164.714L72.9551 163.677L72.0734 163.036H73.1632L73.5 162Z" fill="#C4C4C4"/>
<path d="M73.5 180L73.8368 181.036H74.9266L74.0449 181.677L74.3817 182.714L73.5 182.073L72.6183 182.714L72.9551 181.677L72.0734 181.036H73.1632L73.5 180Z" fill="#C4C4C4"/>
<path d="M73.5 198L73.8368 199.036H74.9266L74.0449 199.677L74.3817 200.714L73.5 200.073L72.6183 200.714L72.9551 199.677L72.0734 199.036H73.1632L73.5 198Z" fill="#C4C4C4"/>
<path d="M73.5 216L73.8368 217.036H74.9266L74.0449 217.677L74.3817 218.714L73.5 218.073L72.6183 218.714L72.9551 217.677L72.0734 217.036H73.1632L73.5 216Z" fill="#C4C4C4"/>
<path d="M73.5 234L73.8368 235.036H74.9266L74.0449 235.677L74.3817 236.714L73.5 236.073L72.6183 236.714L72.9551 235.677L72.0734 235.036H73.1632L73.5 234Z" fill="#C4C4C4"/>
<path d="M73.5 252L73.8368 253.036H74.9266L74.0449 253.677L74.3817 254.714L73.5 254.073L72.6183 254.714L72.9551 253.677L72.0734 253.036H73.1632L73.5 252Z" fill="#C4C4C4"/>
<path d="M73.5 270L73.8368 271.036H74.9266L74.0449 271.677L74.3817 272.714L73.5 272.073L72.6183 272.714L72.9551 271.677L72.0734 271.036H73.1632L73.5 270Z" fill="#C4C4C4"/>
<path d="M73.5 288L73.8368 289.036H74.9266L74.0449 289.677L74.3817 290.714L73.5 290.073L72.6183 290.714L72.9551 289.677L72.0734 289.036H73.1632L73.5 288Z" fill="#C4C4C4"/>
<path d="M73.5 306L73.8368 307.036H74.9266L74.0449 307.677L74.3817 308.714L73.5 308.073L72.6183 308.714L72.9551 307.677L72.0734 307.036H73.1632L73.5 306Z" fill="#C4C4C4"/>
<path d="M73.5 324L73.8368 325.036H74.9266L74.0449 325.677L74.3817 326.714L73.5 326.073L72.6183 326.714L72.9551 325.677L72.0734 325.036H73.1632L73.5 324Z" fill="#C4C4C4"/>
<path d="M73.5 342L73.8368 343.036H74.9266L74.0449 343.677L74.3817 344.714L73.5 344.073L72.6183 344.714L72.9551 343.677L72.0734 343.036H73.1632L73.5 342Z" fill="#C4C4C4"/>
<path d="M73.5 360L73.8368 361.036H74.9266L74.0449 361.677L74.3817 362.714L73.5 362.073L72.6183 362.714L72.9551 361.677L72.0734 361.036H73.1632L73.5 360Z" fill="#C4C4C4"/>
<path d="M73.5 378L73.8368 379.036H74.9266L74.0449 379.677L74.3817 380.714L73.5 380.073L72.6183 380.714L72.9551 379.677L72.0734 379.036H73.1632L73.5 378Z" fill="#C4C4C4"/>
<path d="M73.5 396L73.8368 397.036H74.9266L74.0449 397.677L74.3817 398.714L73.5 398.073L72.6183 398.714L72.9551 397.677L72.0734 397.036H73.1632L73.5 396Z" fill="#C4C4C4"/>
<path d="M73.5 414L73.8368 415.036H74.9266L74.0449 415.677L74.3817 416.714L73.5 416.073L72.6183 416.714L72.9551 415.677L72.0734 415.036H73.1632L73.5 414Z" fill="#C4C4C4"/>
<path d="M73.5 432L73.8368 433.036H74.9266L74.0449 433.677L74.3817 434.714L73.5 434.073L72.6183 434.714L72.9551 433.677L72.0734 433.036H73.1632L73.5 432Z" fill="#C4C4C4"/>
<path d="M73.5 450L73.8368 451.036H74.9266L74.0449 451.677L74.3817 452.714L73.5 452.073L72.6183 452.714L72.9551 451.677L72.0734 451.036H73.1632L73.5 450Z" fill="#C4C4C4"/>
</svg>
