<svg width="21" height="40" viewBox="0 0 21 40" fill="none" xmlns="http://www.w3.org/2000/svg">
<path d="M19.7351 0.758011L14.8749 0.75C9.4146 0.75 5.88593 4.46891 5.88593 10.2249V14.5935H0.999206C0.576936 14.5935 0.234985 14.9451 0.234985 15.3789V21.7085C0.234985 22.1422 0.577325 22.4935 0.999206 22.4935H5.88593V38.465C5.88593 38.8987 6.22788 39.25 6.65015 39.25H13.0259C13.4482 39.25 13.7902 38.8983 13.7902 38.465V22.4935H19.5039C19.9261 22.4935 20.2681 22.1422 20.2681 21.7085L20.2704 15.3789C20.2704 15.1706 20.1897 14.9712 20.0466 14.8238C19.9035 14.6764 19.7086 14.5935 19.5058 14.5935H13.7902V10.8902C13.7902 9.11023 14.2031 8.20664 16.4602 8.20664L19.7343 8.20544C20.1562 8.20544 20.4981 7.85377 20.4981 7.4204V1.54305C20.4981 1.11008 20.1566 0.758812 19.7351 0.758011Z" fill="white"/>
</svg>
