<svg width="36" height="36" viewBox="0 0 36 36" fill="none" xmlns="http://www.w3.org/2000/svg">
<path d="M35.4658 10.7901C35.3838 8.93041 35.083 7.65189 34.6522 6.54404C34.2078 5.36808 33.5241 4.31525 32.6283 3.44003C31.7531 2.55118 30.6933 1.86051 29.531 1.42303C28.4167 0.99223 27.1449 0.691497 25.2852 0.609503C23.4116 0.520565 22.8168 0.5 18.0649 0.5C13.313 0.5 12.7182 0.520565 10.8516 0.602559C8.99192 0.684553 7.71341 0.985553 6.60582 1.41609C5.4296 1.86051 4.37677 2.54424 3.50155 3.44003C2.6127 4.31525 1.9223 5.37503 1.48455 6.53737C1.05375 7.65189 0.75302 8.92347 0.671026 10.7832C0.582089 12.6567 0.561523 13.2515 0.561523 18.0034C0.561523 22.7553 0.582089 23.3501 0.664082 25.2167C0.746076 27.0764 1.04708 28.3549 1.47788 29.4628C1.9223 30.6388 2.6127 31.6916 3.50155 32.5668C4.37677 33.4557 5.43655 34.1463 6.59888 34.5838C7.71341 35.0146 8.98498 35.3153 10.8449 35.3973C12.7113 35.4796 13.3063 35.4999 18.0582 35.4999C22.8101 35.4999 23.4049 35.4796 25.2716 35.3973C27.1312 35.3153 28.4097 35.0146 29.5173 34.5838C31.8695 33.6744 33.7292 31.8147 34.6386 29.4628C35.0691 28.3483 35.3701 27.0764 35.4521 25.2167C35.5341 23.3501 35.5547 22.7553 35.5547 18.0034C35.5547 13.2515 35.5477 12.6567 35.4658 10.7901ZM32.3139 25.08C32.2386 26.7893 31.9515 27.7123 31.7122 28.3277C31.1241 29.8525 29.9139 31.0626 28.3892 31.6507C27.7738 31.89 26.8441 32.1771 25.1415 32.2522C23.2954 32.3344 22.7418 32.3547 18.0719 32.3547C13.402 32.3547 12.8414 32.3344 11.002 32.2522C9.29265 32.1771 8.36962 31.89 7.75427 31.6507C6.99549 31.3703 6.30482 30.9259 5.74422 30.3447C5.16305 29.7771 4.71863 29.0934 4.4382 28.3346C4.19889 27.7193 3.91178 26.7893 3.83673 25.0869C3.75447 23.2409 3.73417 22.687 3.73417 18.017C3.73417 13.3471 3.75447 12.7865 3.83673 10.9474C3.91178 9.23809 4.19889 8.31506 4.4382 7.6997C4.71863 6.94066 5.16305 6.25025 5.75117 5.68938C6.31845 5.10821 7.00217 4.66379 7.76121 4.38362C8.37657 4.14432 9.30654 3.85721 11.0089 3.78189C12.855 3.6999 13.4089 3.67933 18.0785 3.67933C22.7554 3.67933 23.309 3.6999 25.1484 3.78189C26.8577 3.85721 27.7808 4.14432 28.3961 4.38362C29.1549 4.66379 29.8456 5.10821 30.4062 5.68938C30.9873 6.25693 31.4318 6.94066 31.7122 7.6997C31.9515 8.31506 32.2386 9.24477 32.3139 10.9474C32.3959 12.7935 32.4165 13.3471 32.4165 18.017C32.4165 22.687 32.3959 23.2339 32.3139 25.08Z" fill="white"/>
<path d="M18.0649 9.0124C13.1012 9.0124 9.0739 13.0395 9.0739 18.0034C9.0739 22.9674 13.1012 26.9945 18.0649 26.9945C23.0289 26.9945 27.0559 22.9674 27.0559 18.0034C27.0559 13.0395 23.0289 9.0124 18.0649 9.0124ZM18.0649 23.8357C14.8447 23.8357 12.2327 21.2239 12.2327 18.0034C12.2327 14.783 14.8447 12.1712 18.0649 12.1712C21.2854 12.1712 23.8972 14.783 23.8972 18.0034C23.8972 21.2239 21.2854 23.8357 18.0649 23.8357Z" fill="white"/>
<path d="M29.5107 8.65693C29.5107 9.81606 28.5709 10.7559 27.4115 10.7559C26.2523 10.7559 25.3125 9.81606 25.3125 8.65693C25.3125 7.49752 26.2523 6.55793 27.4115 6.55793C28.5709 6.55793 29.5107 7.49752 29.5107 8.65693Z" fill="white"/>
</svg>
