<svg width="54" height="56" viewBox="0 0 54 56" fill="none" xmlns="http://www.w3.org/2000/svg">
<g id="Group 3">
<rect id="Rectangle 2" width="53.4831" height="56" fill="black"/>
<g id="Group 2">
<rect id="Rectangle 1" x="7.4353" y="7.43542" width="39.3989" height="41.9157" stroke="white" stroke-width="1.5"/>
<g id="Group 1">
<path id="D" d="M25.8145 22.4802C25.8145 24.6013 25.3809 26.2244 24.5137 27.3494C23.6523 28.4685 22.4102 29.0281 20.7871 29.0281H17.6406V16.1785H21.0771C22.5713 16.1785 23.7344 16.7322 24.5664 17.8396C25.3984 18.9412 25.8145 20.488 25.8145 22.4802ZM23.3623 22.5505C23.3623 19.6794 22.5713 18.2439 20.9893 18.2439H20.0312V26.9363H20.8047C21.6777 26.9363 22.3223 26.573 22.7383 25.8464C23.1543 25.114 23.3623 24.0154 23.3623 22.5505Z" fill="white"/>
<path id="E" d="M36.4202 29.0281H30.6282V16.1785H36.4202V18.2439H33.0188V21.3025H36.1741V23.3767H33.0188V26.9363H36.4202V29.0281Z" fill="white"/>
<path id="C" d="M34.8909 33C34.2053 33 33.6633 33.4014 33.2649 34.2041C32.8723 35.0068 32.676 36.123 32.676 37.5527C32.676 40.5293 33.4524 42.0176 35.0051 42.0176C35.6848 42.0176 36.3967 41.8008 37.1409 41.3672V43.4941C36.5139 43.9102 35.7112 44.1182 34.7327 44.1182C33.2854 44.1182 32.1721 43.5439 31.3928 42.3955C30.6194 41.2412 30.2327 39.6211 30.2327 37.5352C30.2327 35.4492 30.6311 33.8232 31.428 32.6572C32.2307 31.4912 33.344 30.9082 34.7678 30.9082C35.2366 30.9082 35.6848 30.9727 36.1125 31.1016C36.5461 31.2305 37.009 31.4561 37.5012 31.7783L36.7102 33.7207C36.4465 33.5391 36.1653 33.375 35.8665 33.2285C35.5676 33.0762 35.2424 33 34.8909 33Z" fill="white"/>
<path id="O" d="M25.8533 37.5C25.8533 39.627 25.4548 41.2617 24.658 42.4043C23.8611 43.5469 22.7214 44.1182 21.239 44.1182C19.7507 44.1182 18.6082 43.5498 17.8113 42.4131C17.0144 41.2705 16.616 39.627 16.616 37.4824C16.616 35.3555 17.0144 33.7266 17.8113 32.5957C18.6082 31.459 19.7566 30.8906 21.2566 30.8906C22.739 30.8906 23.8757 31.4619 24.6667 32.6045C25.4578 33.7412 25.8533 35.373 25.8533 37.5ZM19.0593 37.5C19.0593 38.9648 19.2439 40.0811 19.613 40.8486C19.9822 41.6162 20.5242 42 21.239 42C22.6804 42 23.4011 40.5 23.4011 37.5C23.4011 34.5 22.6863 33 21.2566 33C20.53 33 19.9822 33.3838 19.613 34.1514C19.2439 34.9131 19.0593 36.0293 19.0593 37.5Z" fill="white"/>
</g>
</g>
</g>
</svg>
