<svg width="61" height="64" viewBox="0 0 61 64" fill="none" xmlns="http://www.w3.org/2000/svg">
<g id="Group 14">
<g id="Group 13">
<path id="Vector" d="M38.0283 37.2863V45.7356H30.6979L32.2266 43.9735H36.4996V39.0484L38.0283 37.2863Z" fill="black"/>
<path id="Vector_2" d="M18.2539 50.3964L20.4476 47.8325V50.1409H41.8504V46.4845H40.3216V45.0748H41.8504V39.2158H40.3216V37.8061H41.8504V32.1673H40.3216V30.7576H41.8504V25.8325L29.6661 39.7973V37.3127L42.072 23.0836C42.179 22.9594 42.3156 22.8746 42.4644 22.8402C42.6133 22.8058 42.7677 22.8232 42.9079 22.8904C43.0481 22.9575 43.1678 23.0712 43.2517 23.217C43.3357 23.3628 43.38 23.5342 43.3791 23.7092V51.022C43.3791 51.2556 43.2986 51.4797 43.1553 51.645C43.0119 51.8102 42.8175 51.903 42.6148 51.903H18.7966C18.6447 51.9041 18.4961 51.8529 18.3696 51.7562C18.243 51.6595 18.1444 51.5215 18.0862 51.3598C18.0279 51.1982 18.0128 51.0203 18.0427 50.8487C18.0725 50.6771 18.1461 50.5197 18.2539 50.3964Z" fill="black"/>
<path id="Vector_3" d="M21.3398 41.0277L19.1393 38.6053C18.8475 38.2841 18.6806 37.8424 18.6753 37.3775C18.6701 36.9125 18.8268 36.4623 19.1112 36.126L29.4571 23.8879L32.99 22.5985C33.253 22.5108 33.5311 22.5046 33.7956 22.5805C34.06 22.6564 34.3012 22.8116 34.4943 23.0302C34.6929 23.2524 34.8341 23.5329 34.9027 23.8413C34.9713 24.1498 34.9647 24.4747 34.8835 24.7809L33.8474 28.7453L23.5122 40.9707C23.2278 41.307 22.8392 41.502 22.4318 41.5127C22.0244 41.5234 21.6316 41.3489 21.3398 41.0277ZM32.4899 27.8385L33.4436 24.2731L30.284 25.4225L22.3557 34.8008L24.5562 37.2231L32.4899 27.8385ZM23.6824 38.2567L21.4819 35.8343L20.1739 37.3815L22.3744 39.8039L23.6824 38.2567Z" fill="black"/>
</g>
<g id="Group">
<path id="Vector_4" fill-rule="evenodd" clip-rule="evenodd" d="M6.10205 57.0398V26.8791H10.1684V57.0398C10.1684 57.6551 10.3826 58.2452 10.7639 58.6803C11.1451 59.1154 11.6623 59.3599 12.2015 59.3599H48.7982C49.3375 59.3599 49.8546 59.1154 50.2359 58.6803C50.6172 58.2452 50.8314 57.6551 50.8314 57.0398V26.8791H54.8977V57.0398C54.8977 58.8858 54.2551 60.6561 53.1112 61.9614C51.9673 63.2667 50.4159 64 48.7982 64H12.2015C10.5838 64 9.03241 63.2667 7.88854 61.9614C6.74467 60.6561 6.10205 58.8858 6.10205 57.0398ZM50.8314 5.99864V22.239L42.6988 12.9588V5.99864C42.6988 5.38333 42.913 4.79321 43.2943 4.35812C43.6756 3.92302 44.1927 3.67859 44.7319 3.67859H48.7982C49.3375 3.67859 49.8546 3.92302 50.2359 4.35812C50.6172 4.79321 50.8314 5.38333 50.8314 5.99864Z" fill="black"/>
<path id="Vector_5" fill-rule="evenodd" clip-rule="evenodd" d="M27.625 1.35856C28.3875 0.488675 29.4216 0 30.4999 0C31.5781 0 32.6122 0.488675 33.3747 1.35856L60.4035 32.1967C60.7852 32.6324 60.9997 33.2232 60.9997 33.8393C60.9997 34.4554 60.7852 35.0463 60.4035 35.4819C60.0217 35.9176 59.5039 36.1623 58.964 36.1623C58.4241 36.1623 57.9063 35.9176 57.5245 35.4819L30.4999 4.63912L3.47519 35.4819C3.09342 35.9176 2.57563 36.1623 2.03572 36.1623C1.49581 36.1623 0.97802 35.9176 0.596249 35.4819C0.214477 35.0463 0 34.4554 0 33.8393C0 33.2232 0.214477 32.6324 0.596249 32.1967L27.625 1.35856Z" fill="black"/>
</g>
</g>
</svg>
