<svg width="190" height="51" viewBox="0 0 190 51" fill="none" xmlns="http://www.w3.org/2000/svg">
<path d="M37.168 0.743999H38.168V-0.256001H37.168V0.743999ZM37.168 8.88V9.88H38.168V8.88H37.168ZM23.776 8.88V7.88H22.776V8.88H23.776ZM23.776 51V52H24.776V51H23.776ZM13.696 51H12.696V52H13.696V51ZM13.696 8.88H14.696V7.88H13.696V8.88ZM0.304 8.88H-0.696V9.88H0.304V8.88ZM0.304 0.743999V-0.256001H-0.696V0.743999H0.304ZM36.168 0.743999V8.88H38.168V0.743999H36.168ZM37.168 7.88H23.776V9.88H37.168V7.88ZM22.776 8.88V51H24.776V8.88H22.776ZM23.776 50H13.696V52H23.776V50ZM14.696 51V8.88H12.696V51H14.696ZM13.696 7.88H0.304V9.88H13.696V7.88ZM1.304 8.88V0.743999H-0.696V8.88H1.304ZM0.304 1.744H37.168V-0.256001H0.304V1.744ZM54.6027 8.88V7.88H53.6027V8.88H54.6027ZM54.6027 21.48H53.6027V22.48H54.6027V21.48ZM71.5227 21.48H72.5227V20.48H71.5227V21.48ZM71.5227 29.472V30.472H72.5227V29.472H71.5227ZM54.6027 29.472V28.472H53.6027V29.472H54.6027ZM54.6027 42.792H53.6027V43.792H54.6027V42.792ZM73.6827 42.792H74.6827V41.792H73.6827V42.792ZM73.6827 51V52H74.6827V51H73.6827ZM44.5227 51H43.5227V52H44.5227V51ZM44.5227 0.671995V-0.328005H43.5227V0.671995H44.5227ZM73.6827 0.671995H74.6827V-0.328005H73.6827V0.671995ZM73.6827 8.88V9.88H74.6827V8.88H73.6827ZM53.6027 8.88V21.48H55.6027V8.88H53.6027ZM54.6027 22.48H71.5227V20.48H54.6027V22.48ZM70.5227 21.48V29.472H72.5227V21.48H70.5227ZM71.5227 28.472H54.6027V30.472H71.5227V28.472ZM53.6027 29.472V42.792H55.6027V29.472H53.6027ZM54.6027 43.792H73.6827V41.792H54.6027V43.792ZM72.6827 42.792V51H74.6827V42.792H72.6827ZM73.6827 50H44.5227V52H73.6827V50ZM45.5227 51V0.671995H43.5227V51H45.5227ZM44.5227 1.672H73.6827V-0.328005H44.5227V1.672ZM72.6827 0.671995V8.88H74.6827V0.671995H72.6827ZM73.6827 7.88H54.6027V9.88H73.6827V7.88ZM113.659 41.424L114.604 41.0971L114.371 40.424H113.659V41.424ZM93.643 41.424V40.424H92.9307L92.6979 41.0971L93.643 41.424ZM90.331 51V52H91.0433L91.2761 51.3269L90.331 51ZM79.747 51L78.8058 50.662L78.3254 52H79.747V51ZM97.819 0.671995V-0.328005H97.1156L96.8778 0.334039L97.819 0.671995ZM109.555 0.671995L110.496 0.334039L110.258 -0.328005H109.555V0.671995ZM127.627 51V52H129.049L128.568 50.662L127.627 51ZM116.971 51L116.026 51.3269L116.259 52H116.971V51ZM110.923 33.36V34.36H112.327L111.868 33.0331L110.923 33.36ZM103.651 12.336L104.596 12.0091L103.651 9.27685L102.706 12.0091L103.651 12.336ZM96.379 33.36L95.4339 33.0331L94.975 34.36H96.379V33.36ZM113.659 40.424H93.643V42.424H113.659V40.424ZM92.6979 41.0971L89.3859 50.6731L91.2761 51.3269L94.5881 41.7509L92.6979 41.0971ZM90.331 50H79.747V52H90.331V50ZM80.6882 51.338L98.7602 1.00995L96.8778 0.334039L78.8058 50.662L80.6882 51.338ZM97.819 1.672H109.555V-0.328005H97.819V1.672ZM108.614 1.00995L126.686 51.338L128.568 50.662L110.496 0.334039L108.614 1.00995ZM127.627 50H116.971V52H127.627V50ZM117.916 50.6731L114.604 41.0971L112.714 41.7509L116.026 51.3269L117.916 50.6731ZM111.868 33.0331L104.596 12.0091L102.706 12.6629L109.978 33.6869L111.868 33.0331ZM102.706 12.0091L95.4339 33.0331L97.3241 33.6869L104.596 12.6629L102.706 12.0091ZM96.379 34.36H110.923V32.36H96.379V34.36ZM189.174 0.743999H190.174V-0.256001H189.174V0.743999ZM189.174 51V52H190.174V51H189.174ZM179.094 51H178.094V52H179.094V51ZM179.094 18.312H180.094L178.169 17.9311L179.094 18.312ZM165.63 51V52H166.3L166.555 51.3809L165.63 51ZM157.998 51L157.074 51.3826L157.33 52H157.998V51ZM144.462 18.312L145.386 17.9294L143.462 18.312H144.462ZM144.462 51V52H145.462V51H144.462ZM134.382 51H133.382V52H134.382V51ZM134.382 0.743999V-0.256001H133.382V0.743999H134.382ZM145.83 0.743999L146.749 0.350721L146.49 -0.256001H145.83V0.743999ZM161.814 38.112L160.895 38.5053L161.814 40.6547L162.733 38.5053L161.814 38.112ZM177.798 0.743999V-0.256001H177.138L176.879 0.350721L177.798 0.743999ZM188.174 0.743999V51H190.174V0.743999H188.174ZM189.174 50H179.094V52H189.174V50ZM180.094 51V18.312H178.094V51H180.094ZM178.169 17.9311L164.705 50.6191L166.555 51.3809L180.019 18.6929L178.169 17.9311ZM165.63 50H157.998V52H165.63V50ZM158.922 50.6174L145.386 17.9294L143.538 18.6946L157.074 51.3826L158.922 50.6174ZM143.462 18.312V51H145.462V18.312H143.462ZM144.462 50H134.382V52H144.462V50ZM135.382 51V0.743999H133.382V51H135.382ZM134.382 1.744H145.83V-0.256001H134.382V1.744ZM144.911 1.13728L160.895 38.5053L162.733 37.7187L146.749 0.350721L144.911 1.13728ZM162.733 38.5053L178.717 1.13728L176.879 0.350721L160.895 37.7187L162.733 38.5053ZM177.798 1.744H189.174V-0.256001H177.798V1.744Z" fill="white" fill-opacity="0.5"/>
</svg>
