<svg width="683" height="182" viewBox="0 0 683 182" fill="none" xmlns="http://www.w3.org/2000/svg">
<path d="M133.44 0.519997H134.44V-0.480003H133.44V0.519997ZM133.44 29.9V30.9H134.44V29.9H133.44ZM85.08 29.9V28.9H84.08V29.9H85.08ZM85.08 182V183H86.08V182H85.08ZM48.68 182H47.68V183H48.68V182ZM48.68 29.9H49.68V28.9H48.68V29.9ZM0.320001 29.9H-0.68V30.9H0.320001V29.9ZM0.320001 0.519997V-0.480003H-0.68V0.519997H0.320001ZM132.44 0.519997V29.9H134.44V0.519997H132.44ZM133.44 28.9H85.08V30.9H133.44V28.9ZM84.08 29.9V182H86.08V29.9H84.08ZM85.08 181H48.68V183H85.08V181ZM49.68 182V29.9H47.68V182H49.68ZM48.68 28.9H0.320001V30.9H48.68V28.9ZM1.32 29.9V0.519997H-0.68V29.9H1.32ZM0.320001 1.52H133.44V-0.480003H0.320001V1.52ZM196.399 29.9V28.9H195.399V29.9H196.399ZM196.399 75.4H195.399V76.4H196.399V75.4ZM257.499 75.4H258.499V74.4H257.499V75.4ZM257.499 104.26V105.26H258.499V104.26H257.499ZM196.399 104.26V103.26H195.399V104.26H196.399ZM196.399 152.36H195.399V153.36H196.399V152.36ZM265.299 152.36H266.299V151.36H265.299V152.36ZM265.299 182V183H266.299V182H265.299ZM159.999 182H158.999V183H159.999V182ZM159.999 0.259984V-0.740016H158.999V0.259984H159.999ZM265.299 0.259984H266.299V-0.740016H265.299V0.259984ZM265.299 29.9V30.9H266.299V29.9H265.299ZM195.399 29.9V75.4H197.399V29.9H195.399ZM196.399 76.4H257.499V74.4H196.399V76.4ZM256.499 75.4V104.26H258.499V75.4H256.499ZM257.499 103.26H196.399V105.26H257.499V103.26ZM195.399 104.26V152.36H197.399V104.26H195.399ZM196.399 153.36H265.299V151.36H196.399V153.36ZM264.299 152.36V182H266.299V152.36H264.299ZM265.299 181H159.999V183H265.299V181ZM160.999 182V0.259984H158.999V182H160.999ZM159.999 1.25998H265.299V-0.740016H159.999V1.25998ZM264.299 0.259984V29.9H266.299V0.259984H264.299ZM265.299 28.9H196.399V30.9H265.299V28.9ZM409.658 147.42L410.603 147.093L410.37 146.42H409.658V147.42ZM337.378 147.42V146.42H336.665L336.432 147.093L337.378 147.42ZM325.418 182V183H326.13L326.363 182.327L325.418 182ZM287.198 182L286.256 181.662L285.776 183H287.198V182ZM352.457 0.259984V-0.740016H351.754L351.516 -0.0779724L352.457 0.259984ZM394.837 0.259984L395.779 -0.0779724L395.541 -0.740016H394.837V0.259984ZM460.098 182V183H461.519L461.039 181.662L460.098 182ZM421.618 182L420.672 182.327L420.905 183H421.618V182ZM399.777 118.3V119.3H401.182L400.723 117.973L399.777 118.3ZM373.518 42.38L374.463 42.0531L373.518 39.3209L372.572 42.0531L373.518 42.38ZM347.258 118.3L346.312 117.973L345.853 119.3H347.258V118.3ZM409.658 146.42H337.378V148.42H409.658V146.42ZM336.432 147.093L324.472 181.673L326.363 182.327L338.323 147.747L336.432 147.093ZM325.418 181H287.198V183H325.418V181ZM288.139 182.338L353.399 0.59794L351.516 -0.0779724L286.256 181.662L288.139 182.338ZM352.457 1.25998H394.837V-0.740016H352.457V1.25998ZM393.896 0.59794L459.156 182.338L461.039 181.662L395.779 -0.0779724L393.896 0.59794ZM460.098 181H421.618V183H460.098V181ZM422.563 181.673L410.603 147.093L408.712 147.747L420.672 182.327L422.563 181.673ZM400.723 117.973L374.463 42.0531L372.572 42.7069L398.832 118.627L400.723 117.973ZM372.572 42.0531L346.312 117.973L348.203 118.627L374.463 42.7069L372.572 42.0531ZM347.258 119.3H399.777V117.3H347.258V119.3ZM682.351 0.519997H683.351V-0.480003H682.351V0.519997ZM682.351 182V183H683.351V182H682.351ZM645.951 182H644.951V183H645.951V182ZM645.951 63.96H646.951L645.026 63.5791L645.951 63.96ZM597.331 182V183H598L598.255 182.381L597.331 182ZM569.771 182L568.847 182.383L569.103 183H569.771V182ZM520.891 63.96L521.815 63.5774L519.891 63.96H520.891ZM520.891 182V183H521.891V182H520.891ZM484.491 182H483.491V183H484.491V182ZM484.491 0.519997V-0.480003H483.491V0.519997H484.491ZM525.831 0.519997L526.75 0.126719L526.491 -0.480003H525.831V0.519997ZM583.551 135.46L582.631 135.853L583.551 138.003L584.47 135.853L583.551 135.46ZM641.271 0.519997V-0.480003H640.611L640.351 0.126719L641.271 0.519997ZM681.351 0.519997V182H683.351V0.519997H681.351ZM682.351 181H645.951V183H682.351V181ZM646.951 182V63.96H644.951V182H646.951ZM645.026 63.5791L596.406 181.619L598.255 182.381L646.875 64.3408L645.026 63.5791ZM597.331 181H569.771V183H597.331V181ZM570.695 181.617L521.815 63.5774L519.967 64.3426L568.847 182.383L570.695 181.617ZM519.891 63.96V182H521.891V63.96H519.891ZM520.891 181H484.491V183H520.891V181ZM485.491 182V0.519997H483.491V182H485.491ZM484.491 1.52H525.831V-0.480003H484.491V1.52ZM524.911 0.913274L582.631 135.853L584.47 135.067L526.75 0.126719L524.911 0.913274ZM584.47 135.853L642.19 0.913274L640.351 0.126719L582.631 135.067L584.47 135.853ZM641.271 1.52H682.351V-0.480003H641.271V1.52Z" fill="white" fill-opacity="0.5"/>
</svg>
