<svg width="38" height="30" viewBox="0 0 38 30" fill="none" xmlns="http://www.w3.org/2000/svg">
<path d="M37.375 4.10207C36.0224 4.67596 34.5711 5.06516 33.0462 5.23892C34.6032 4.34615 35.795 2.93009 36.3599 1.24793C34.8994 2.07469 33.2873 2.67503 31.5695 3.00047C30.194 1.59539 28.2374 0.720215 26.0672 0.720215C21.9038 0.720215 18.528 3.95258 18.528 7.93696C18.528 8.50205 18.5946 9.05397 18.7232 9.58174C12.4585 9.28045 6.90344 6.40653 3.18549 2.03951C2.53558 3.10379 2.16586 4.34391 2.16586 5.66768C2.16586 8.17224 3.49781 10.3821 5.5187 11.675C4.28319 11.6355 3.12118 11.31 2.10389 10.7691V10.8592C2.10389 14.3555 4.70348 17.2734 8.15042 17.9375C7.51888 18.1002 6.85293 18.1903 6.16399 18.1903C5.67717 18.1903 5.20639 18.1442 4.74479 18.0562C5.70467 20.9257 8.48801 23.0125 11.7857 23.0697C9.2068 25.0047 5.95502 26.1547 2.42311 26.1547C1.81457 26.1547 1.21516 26.1195 0.625 26.0558C3.96175 28.1074 7.92313 29.3035 12.1807 29.3035C26.049 29.3035 33.6296 18.3047 33.6296 8.76596L33.6043 7.83145C35.0854 6.81989 36.3668 5.54895 37.375 4.10207Z" fill="white"/>
</svg>
